<?xml version="1.0" encoding="UTF-8" standalone="no"?>
<svg
   xmlns:dc="http://purl.org/dc/elements/1.1/"
   xmlns:cc="http://creativecommons.org/ns#"
   xmlns:rdf="http://www.w3.org/1999/02/22-rdf-syntax-ns#"
   xmlns:svg="http://www.w3.org/2000/svg"
   xmlns="http://www.w3.org/2000/svg"
   viewBox="0 0 354.32501 354.45001"
   height="354.45001"
   width="354.32501"
   xml:space="preserve"
   version="1.1"
   id="svg2"><metadata
     id="metadata8"><rdf:RDF><cc:Work
         rdf:about=""><dc:format>image/svg+xml</dc:format><dc:type
           rdf:resource="http://purl.org/dc/dcmitype/StillImage" /><dc:title></dc:title></cc:Work></rdf:RDF></metadata><defs
     id="defs6"><clipPath
       id="clipPath18"
       clipPathUnits="userSpaceOnUse"><path
         id="path20"
         d="m 2586.63,1588.7 l 72.25,168.92 c 13.69,-48.82 24.41,-99.6 31.26,-150.37 L 2586.63,1588.7 Z M 306.602,1355.32 c 0,-30.27 20.511,-49.8 47.847,-49.8 c 41.012,0 73.239,34.18 73.239,70.31 c 0,31.25 -21.489,51.75 -50.774,51.75 c -38.086,0 -70.312,-37.1 -70.312,-72.26 l 0,0 z m 919.828,-227.51 l 0,444.29 l -172.83,-30.28 l 0,-444.28 l 172.83,30.27 z m -426.731,148.58 c 43.809,24.7 72.278,70.91 72.278,121.9 c 0,64.44 -44.926,100.57 -101.555,100.57 c -25.395,0 -55.656,-6.84 -76.168,-20.5 l -157.207,-27.34 l 0,-444.3 L 706.953,1037 l 0,399.37 c 15.621,10.74 36.125,17.57 57.613,17.57 c 34.172,0 58.586,-22.46 58.586,-62.49 c 0,-48.82 -35.148,-80.08 -77.14,-89.84 l 0,-42.96 l 202.121,-178.69 l 61.517,10.74 l -209.951,185.69 z m 1572.111,455.84 l 0,44.92 l -319.3,-56.63 l 0,-445.27 l 319.3,57.61 l 0,43.94 l -148.42,-25.39 l 0,167.96 l 95.69,16.6 l 0,44.92 l -95.69,-17.58 l 0,142.56 l 148.42,26.36 z m -919.82,-85.93 l -100.57,-496.03 l 49.79,8.78 l 48.83,247.05 l 195.29,-179.66 l 184.54,232.39 l 46.87,-215.81 l 47.85,8.8 l -101.55,459.91 L 1637.51,1476.4 l -185.52,169.9 z M 438.426,1047.74 l -29.293,27.34 c -31.246,-41.99 -83.977,-72.26 -125.969,-72.26 c -44.914,0 -98.617,45.89 -98.617,169.9 c 0,114.25 58.586,198.22 96.672,212.87 l 0,34.17 c -57.606,-10.73 -105.465,-31.24 -148.43,-70.3 c -0.976,20.51 -1.949,52.73 -1.949,68.36 c 0,708.91 576.113,1286.96 1286.97,1286.96 c 507.76,0 949.12,-295.86 1158.07,-725.5 l 65.43,152.32 c -245.09,420.86 -702.07,704.03 -1223.5,704.03 C 636.648,2835.63 0,2198.98 0,1417.82 c 0,-99.6 7.80859,-197.24 29.2969,-290.01 C 55.6563,1015.52 124.984,947.172 232.395,947.172 c 85.921,0 160.14,36.117 206.031,100.568 l 0,0 z M 1417.81,0 c 781.16,0 1416.84,634.699 1416.84,1412.93 c 0,187.48 -40.03,388.63 -121.08,579.05 l -281.21,-650.33 l 53.69,9.76 l 29.3,68.35 l 189.43,34.18 c 0,-12.69 0.99,-24.41 0.99,-40.03 C 2703.81,704.031 2126.72,130.852 1417.81,130.852 c -494.087,0 -923.72,279.269 -1139.529,687.418 l -149.39,10.742 C 351.52,340.789 846.578,0 1417.81,0 l 0,0 z" /></clipPath><linearGradient
       id="linearGradient22"
       spreadMethod="pad"
       gradientTransform="matrix(2e-7,4955.08,4955.08,-2e-7,1417.32,-243.88)"
       gradientUnits="userSpaceOnUse"
       y2="0"
       x2="1"
       y1="0"
       x1="0"><stop
         id="stop24"
         offset="0"
         style="stop-opacity:1;stop-color:#ed1443" /><stop
         id="stop26"
         offset="1"
         style="stop-opacity:1;stop-color:#fabc09" /></linearGradient></defs><g
     transform="matrix(1.25,0,0,-1.25,0,354.45)"
     id="g10"><g
       transform="scale(0.1,0.1)"
       id="g12"><g
         id="g14"><g
           clip-path="url(#clipPath18)"
           id="g16"><path
             id="path28"
             style="fill:url(#linearGradient22);fill-opacity:1;fill-rule:nonzero;stroke:none"
             d="m 2586.63,1588.7 l 72.25,168.92 c 13.69,-48.82 24.41,-99.6 31.26,-150.37 L 2586.63,1588.7 Z M 306.602,1355.32 c 0,-30.27 20.511,-49.8 47.847,-49.8 c 41.012,0 73.239,34.18 73.239,70.31 c 0,31.25 -21.489,51.75 -50.774,51.75 c -38.086,0 -70.312,-37.1 -70.312,-72.26 l 0,0 z m 919.828,-227.51 l 0,444.29 l -172.83,-30.28 l 0,-444.28 l 172.83,30.27 z m -426.731,148.58 c 43.809,24.7 72.278,70.91 72.278,121.9 c 0,64.44 -44.926,100.57 -101.555,100.57 c -25.395,0 -55.656,-6.84 -76.168,-20.5 l -157.207,-27.34 l 0,-444.3 L 706.953,1037 l 0,399.37 c 15.621,10.74 36.125,17.57 57.613,17.57 c 34.172,0 58.586,-22.46 58.586,-62.49 c 0,-48.82 -35.148,-80.08 -77.14,-89.84 l 0,-42.96 l 202.121,-178.69 l 61.517,10.74 l -209.951,185.69 z m 1572.111,455.84 l 0,44.92 l -319.3,-56.63 l 0,-445.27 l 319.3,57.61 l 0,43.94 l -148.42,-25.39 l 0,167.96 l 95.69,16.6 l 0,44.92 l -95.69,-17.58 l 0,142.56 l 148.42,26.36 z m -919.82,-85.93 l -100.57,-496.03 l 49.79,8.78 l 48.83,247.05 l 195.29,-179.66 l 184.54,232.39 l 46.87,-215.81 l 47.85,8.8 l -101.55,459.91 L 1637.51,1476.4 l -185.52,169.9 z M 438.426,1047.74 l -29.293,27.34 c -31.246,-41.99 -83.977,-72.26 -125.969,-72.26 c -44.914,0 -98.617,45.89 -98.617,169.9 c 0,114.25 58.586,198.22 96.672,212.87 l 0,34.17 c -57.606,-10.73 -105.465,-31.24 -148.43,-70.3 c -0.976,20.51 -1.949,52.73 -1.949,68.36 c 0,708.91 576.113,1286.96 1286.97,1286.96 c 507.76,0 949.12,-295.86 1158.07,-725.5 l 65.43,152.32 c -245.09,420.86 -702.07,704.03 -1223.5,704.03 C 636.648,2835.63 0,2198.98 0,1417.82 c 0,-99.6 7.80859,-197.24 29.2969,-290.01 C 55.6563,1015.52 124.984,947.172 232.395,947.172 c 85.921,0 160.14,36.117 206.031,100.568 l 0,0 z M 1417.81,0 c 781.16,0 1416.84,634.699 1416.84,1412.93 c 0,187.48 -40.03,388.63 -121.08,579.05 l -281.21,-650.33 l 53.69,9.76 l 29.3,68.35 l 189.43,34.18 c 0,-12.69 0.99,-24.41 0.99,-40.03 C 2703.81,704.031 2126.72,130.852 1417.81,130.852 c -494.087,0 -923.72,279.269 -1139.529,687.418 l -149.39,10.742 C 351.52,340.789 846.578,0 1417.81,0 l 0,0" /></g></g></g></g></svg>