<?xml version="1.0" encoding="UTF-8"?>
<svg width="555.64mm" height="543.71mm" version="1.1" viewBox="0 0 555.64 543.71" xmlns="http://www.w3.org/2000/svg" xmlns:osb="http://www.openswatchbook.org/uri/2009/osb">
 <g transform="translate(201.72 171.69)">
  <rect x="-195.08" y="301.84" width="542.34" height="63.542" style="fill-rule:evenodd;fill:#fff;paint-order:stroke fill markers;stroke-linecap:round;stroke-linejoin:round;stroke-width:13.295;stroke:#fdfefe"/>
  <path d="m-189.82 364.63c2.5408-1.1525 1.4201 1.2313 0 0zm26.668-0.20947c0.8592-1.1008 14.413-0.43152 8.7655 0.38768-1.0662-0.70403-4.9797 0.49772-8.7655-0.38768zm12.557 0.28733c-5.4097-1.6054 2.6249-1.8054 7.8039-2.9883-1.8912-3.5787 5.3265-2.1302 7.1217-0.37056 2.6282 1.6143 3.982-6.4623 4.7233 0.44374 6.3143-1.4617 12.622-1.3907 2.6075 0.19735-5.1674-0.37512-6.2718 2.4009-1.7439 2.3901-1.9057 0.26172-14.135-0.90104-7.2833-1.7699 2.3462-1.4012-13.492 1.2701-6.9541 1.5225 9.3997 0.53879-2.4422 0.37271-6.0261 0.72471l-0.8443-0.036 0.5953-0.11465zm16.735-1.6654c-1.2133-1.2682-2.399 1.1986 0 0zm9.1394 1.5693c6.1704-0.58522 10.728-1.7913 1.8705 0.28276 1.0379-1.0205-2.9228 0.7458-1.8705-0.28276zm9.1169 0.18132c1.5762-0.90208 2.1014 0.7575 0 0zm3.7869-0.0695c7.2928-0.83938 13.657 0.69824 0 0zm8.6502-0.0275c6.6823-1.8165-5.8595-3.4401 1.057-2.8699 5.1918 0.0662 7.2739-0.48822 8.6256-2.8058-8.3797 1.3676-17.333 3.222-26.007 3.442-5.254 2.1047 0.8571-1.8903-0.2138-3.6964-3.271 1.2095-2.1319-3.0332-7.3394-0.22186-2.9373 1.3752 6.0693-4.9734-2.9353-2.9102 4.6186-0.53851-12.748 3.7259-7.9308 1.9937 4.2579-1.106 5.8996-2.9185 8.6694-3.201 7.3994 0.62778 14.126-0.22798 8.3932-1.5475-1.6753-1.5457 3.6531-1.5806-6.1897-1.8393-2.8151-1.6546-15.832 2.0022-7.9144-0.89771 11.086-1.256-4.0424-1.023-7.5072 0.27268-5.8912-0.36048-5.8177-0.8865-12.084-0.0715-4.7911-2.2008 10.272-2.5658 7.0569-0.54094 5.2676-2.4959 5.5636-0.3519 8.4921-0.91404 1.1797-1.8182 7.3481-3.2696-0.8191-2.5267-10.854 1.5868 5.25-2.9541-4.8948-2.6072 8.7472-0.78814 19.105-0.10953 26.723-3.4656-3.9381-3.671-9.0327 2.7959-11.906 0 9.9921-2.2334-6.122-2.733-5.2503-1.3486 6.1902-0.72921 5.2971-3.6051 9.216-1.0235 8.7111 2.2188-4.0556-1.9845 3.9383-2.2755 5.7913-1.6386-15.735-1.9361-4.4184-2.8458 5.1078-0.28773 13.776 0.53661 3.7031-1.2346-3.2334-1.3925-1.2265-2.7559-7.0564-0.50852-2.0872 2.4074-14.124-1.2086-7.6229-1.9702 10.588 0.57725 5.6683-3.0164-0.6767-1.2294-3.4251-2.1296 4.6185-2.7477 4.1324-1.5903-4.6119-2.9809-10.004 0.7848-14.818-0.42345-8.3999 1.6037 3.6976-3.0695 6.2857-0.74935 2.6291-3.9592 9.0559 2.9693 9.8312-1.5886 3.8583-3.3223-5.1806 0.22881-6.9207-2.6588-4.7239-1.5806-16.64 2.6798-6.3279 1.558 8.5188-2.1812-4.7212 3.3369 4.2847 0.0515 12.063-0.49036-0.1999 1.6148-4.9804 1.7236-1.0993-1.9223-4.3454 1.2221-7.5285-0.36727 3.5895-2.9994-0.8945 0.70608-5.9531-0.48117 2.9502 0.38451 13.785-3.0759 4.1868-2.198-4.2441-0.13371-12.987 1.2706-4.2203-0.72363 0.037-2.511-8.4343-0.85543-10.55-1.6804-9.7812 0.67038 1.1496-1.8322 5.2394-1.4403 6.3898-9.5799 4.5578-20.582 6.9682-31.631 2.2405-7.1374 5.5177-14.417 8.4899-21.144 0.9452-5.3379 3.7609-11.697 6.7807-15.969 4.3804-6.5022 12.049-10.726 14.985-17.921 1.4918-6.039-5.0529-10.644-0.046-16.404 7.6819-7.5162 8.6054-19.503 5.8796-29.141-0.7471-8.0536-8.2625-15.422-4.0362-23.712-1.4509-5.5361 0.6041-12.868 2.8649-19.062 2.9203-3.4473 5.1672-7.2235 4.8645-11.088-1.203-3.8892 2.7468-6.2728 1.6841-5.4997 3.6995-1.2384 8.3891-4.182 12.337-5.8686 3.1277-3.9188 7.0313-8.2217 7.2365-14.112 1.8259-5.0131 1.8967-9.8038 2.6865-14.107 0.016-0.65642-3.229-4.1953 0.053-6.272 5.7765 0.61287 1.5473-10.172 7.7961-11.645-0.2514-5.0866-0.6461-6.7999 0.4853-6.9969 2.1445-3.5825 10.55-3.3531 8.8899-9.3927 1.369-7.3218 3.4446-11.865 7.9606-17.116 0.4989-5.3066 5.8616-11.976 4.8897-17.49 5.6113 0.86907 1.6877-3.766 7.1071-5.595 2.3953-5.3024 1.4876-10.676 5.4987-15.096 2.1763-8.0464 2.7948-12.972 5.1543-21.121 1.1314-5.5781 4.6975-11.129 6.2583-16.313 3.6852-3.8902 4.3151-6.2855 6.0982-10.189 3.4004-2.085 4.81-3.8781 7.8533-8.0834-0.971-4.8735 2.8954-8.5135 2.7029-13.345 4.2914-1.6558 4.1864-9.5348 8.097-12.361 1.3236-6.8794 0.056-14.535 4.7178-19.659-0.3303-4.4136 3.6468-6.2217 2.6282-9.6965 1.4037-3.7945 3.6971-7.8052 2.9727-13.251 2.46-1.4545 5.6992-4.7994 7.5407-8.405 4.1851-3.0138 1.6411-12.106 3.9687-16.007 2.7428-3.73-1.0015-10.375 0.3765-12.264 6.5176-3.4565 9.9381-8.7848 19.053-5.9689 6.4495 0.80401 14.156 3.6575 18.487 7.5954 4.2866 1.6844 0.8531 11.616 6.1359 11.987 3.9453 4.3622-0.7414 7.1379 2.4624 12.211 3.9811-0.0445 3.4549 10.797 6.5333 8.5328-0.6618 4.4145 6.2701 7.6345 7.2299 12.869 5.077 9.865 5.0818 22.315 10.218 31.737 3.1165 5.3243 4.0322 12.985 7.317 17.174-1.0702 8.8859 7.5562 13.634 10.033 21.303 6.0392-0.71746 7.6309 4.3324 12.305 5.195-0.8068-2.3416 2.9036-0.92405 4.2525 2.5179 4.9115 9.183 13.914 7.79 21.013 13.002 8.265 3.1784 14.125 7.9803 20.418 13.81 3.294 4.6356 2.9961-0.77289 5.1562 3.8615 1.4316 4.3865 5.09 5.2884 7.8955 7.1048 4.8772 3.8776 7.7204 5.511 12.435 10.03 4.3354 4.7904 10.047 1.2307 12.26 7.9715 2.6853 3.1023 7.0484 11.023 11.212 7.5291 3.4985-2.2006 7.1298 1.2079 10.298 3.3284 3.3422 2.8785 7.3061 2.9577 9.4823 9.0715 2.0841 4.8062 7.1708 3.765 9.1744 9.7066 5.164 1.0846 0.9665 7.1126 3.662 11.261 5.2271 5.3509 6.8685 15.052 13.75 19.962 1.2772 5.5428 4.1828 10.811 5.547 14.43 3.4452 5.7046-1.954 14.106 2.0033 19.676-0.4713 5.5598 5.7958 10.893 2.2438 17.529-3.4535 6.4133 3.3011 11.571 0.5343 16.988 3.7451 6.2428 2.9131 4.2365 2.7445 10.339 1.1243 6.4444 4.3043 12.216 10.882 15.993 1.2692 1.907 3.219 4.509 4.3153 10.126 2.6573 5.5208 3.2093 11.792 6.5112 12.909-0.2811 3.9304 0.3833 8.0722 3.6481 12.602 2.3049 3.4657 2.4236 2.3221 2.9338 4.0963-1.7515 2.5231 5.654 4.0355 5.9674 7.663 4.7909 0.064 10.013 6.7375 12.166 10.328 5.2871 5.7851 10.159 11.695 13.617 18.484 7.2134 2.5027 9.9886 15.216 3.2269 19.509-4.9238 9.4066-4.2639 21.377 2.083 29.592 2.4679 6.0969 0.2146 1.9195 1.917 8.3844 0.7933 2.955 8.5556 8.7318 5.9217 4.8448 5.7133 0.69248 7.1112 2.0783 4.8262 2.3852 6.5529 1.0515-7.3806 2.1281-5.3687 2.2696 1.747-1.5932-5.4333-0.4205-7.9266-1.4639 2.9079 1.7426-1.7333 2.4928-3.7354 1.4394 2.6882 2.349-6.8859 3.2223 2.8437 1.7985 5.5598 1.1061 7.7229 0.2323 10.275 2.1877-1.929 1.0531-6.4171-1.5031-9.3836-1.4109-1.4795 1.7773-6.4782-0.92447-9.3927 0.59258-2.6458 1.2089 9.9183 2.4932 12.71 2.4886 1.1921 3.283-4.628 0.10378-7.1534 0.43586-5.438-0.96262-4.8239 0.41269-10.054-0.115 5.5533 2.4386-7.2457-0.55845-8.3343 1.6049-0.1777-0.748-1.7065-1.1783-4.4025-1.5713-2.0426 3.0283-10.551-2.0613-5.3616 1.905 9.2218 2.1685-7.1158-1.6614-3.9282 0.84151-1.9658-2.2741-4.7354 1.3187 3.7193 0.50479 0.5518 1.8616 6.885 1.132 1.374 2.5279-5.852-1.3938-5.5112-0.83749-10.186-0.14661 4.9068-1.7552-8.8822-1.6111-1.2757 0.0643 2.0651 1.4263 9.7792 0.72284 14.373 0.51584 4.36-2.0882 10.22 1.5644 1.9182-0.30648 3.1837 2.4169 1.2758 1.9226-0.904 2.3712-5.8422 0.36428-12.022-1.5622-14.905-5e-3 -2.863 1.2616-10.207-2.7228-5.7763 0.57787-4.9833-2.6703-8.4895-0.2536-1.1531 0.75009 1.1438 1.8561 12.57 0.43726 7.6348 1.7844-2.9183 0.68216-4.7802 2.2556-10.68 0.99575-3.4051-2.1618-7.6812-2.1803-8.5467-0.17559-2.0842 2.2376 5.0125-0.39489 9.3377 1.3386-0.7502 0.81932 9.3038-1.0351 9.0239 1.104-10.28-0.37503 4.244-0.8998 0.1592-1.8377 6.2956-0.45292 6.2736 0.32386 11.113-0.48422-6.2593 1.8473 2.4987 1.5094 5.8794 1.2402 5.4157-2.0602 7.3608 2.1443 0.3383 0.84194-5.7183 2.0518 10.102 1.7196 8.8635 2.0941-2.4885 0.0728-9.7086 0.27282-10.637 1.0029-2.8429-0.36412-11.782 0.16303-2.3108 2.2746-6.0601-1.0276 3.2611-2.3089 5.7812-0.84008 5.469-0.1087 5.1614-1.2975 10.586-0.97548 1.2768-1.5198-0.5337-1.1684 6.0381 1.0179 4.6374-2.0312 7.2174 2.9827 12.9 2.1388 8.9086 1.018-10.584-2.5853-1.7859-2.4358 8.4795 0.37824 9.2924 1.3781 7.3782 2.6068 10.128-1.5785 8.9828 3.9133 9.3567 4.3053-2.9037 3.2422-10.934-1.4461-14.062 1.7338 2.3482-1.0643 5.1442 1.7776 1.4906 1.8638-3.6913-2.1998-19.962 2.5304-12.017-2.3929 3.6944-1.6989-11.474-2.4571-6.7867-0.64509 8.6905 0.31147-5.658 2.7744-7.9017 0.90954-1.5095 2.5115-9.3959-0.9319-13.865 0.62673-1.4125-0.87059-5.2617-2.2504-7.6744-1.3793 0.2171-3.1911-17.616-1.8206-6.8561 0.0568 3.2484 3.5154 12.486 3.0545 2.3908 2.8872 0.1663-0.41119-8.0763-3.326-5.7133-0.9684-5.3942-0.57746 1.3957 3.1306 1.0778 3.0092 11.817 3.1725-4.7972-1.1677-7.9007 8e-5 -7.0278-1.4507-2.3595-0.16798 0.4267 1.6959 11.416 1.7306 22.296 4.8797 33.84 2.2728-5.5766 0.0681-0.8777-4.3248-8.0434-1.985-3.5653-0.9484-8.7211 1.0152-5.7195-1.1915 12.054-0.0471-5.5455-3.3295 8.4976-1.2639 6.7481 2.2904 13.436-3.4715 20.902-1.4909-7.6457 2.9215 11.865-0.7627 9.7188 0.1161 5.6489 3.1292 13.974-2.6491 18.195-0.53623-2.207 0.0201 2.2799 10.212-1.4041 8.2021-4.4789-0.49399-9.2494-1.5984-15.202-2.1674 2.462 1.5956 8.8646 0.99357 4.2422 2.6848-11.326-0.21916-23.965 0.0537-35.264-0.29824-5.558 0.63476-17.236 0.0823-25.109 0.26799h-153.88c-0.411-0.8938-12.474 0.71539-17.074 0.0418-14.889 0.33765-29.79 0.11988-43.99-2.7016-9.1938-0.86294-10.332 0.6334-1.6421 0.86968 3.12-0.57156 12.516 2.0591 14.315 1.8317l-125.7-0.0423c5.9941-3.7152-9.01 2.4817-12.112 0.043-12.731 0.23313-26.189-0.28238-36.965-0.20275zm41.406-0.33073c1.2039-1.0826-2.5344 0.72198 0 0zm3.5142-0.16825c1.6909-2.5215-5.0523 1.3361 0 0zm209.99-0.0693c0.8156-2.0365-6.5978 1.2527 0 0zm-22.869-0.25924c-1.434-2.5244-3.2507 1.4189 0 0zm75.869-0.36311c-2.5393-2.3192-0.047 1.55 0 0zm-301.5-0.24096c-1.7252-1.5378-5.1125 1.2979 0 0zm104.31-0.24035c-2.795-1.2985-0.1174 1.631 0 0zm3.3898 0.37391c-2.7606-0.15254 0.2978 0.44349 0 0zm63.027-0.0833c-1.3825-1.8499-2.7584 0.93874 0 0zm173.64 0.0901c0.9588-2.4988-6.3421 0.62086 0 0zm-210.15-0.95925c-1.9004-0.75842-7.2407 1.3254 0 0zm33.642 0.41664c-5.8334-1.7405-2.514 1.0327 0 0zm12.194 0.0143c-1.8965-1.3753-0.5218-0.15536 0 0zm4.0379-0.0987c-3.1027-1.0474 0.3838 1.1668 0 0zm5.9026 0.0169c1.4485-1.5322-5.0781 0.86366 0 0zm164.45 0.0138c-3.4233-0.90724-0.8463-0.33233 0 0zm-346.9-1.0173c4.0824-2.1208-3.0109-2.938-3.1257-2.032-3.6029 2.8174-5.2576 2.8796 0.6448 2.2241-2.6358 1.2599 1.7791 0.83553 2.4809-0.19212zm15.051 0.32515c7.3185-3.5592-7.0944 1.4436 0 0zm15.144-0.0936c-1.2591-2.3188-1.7083 2.5624 0 0zm157.98 0.32092c-0.973-0.8206-3.5081 1.2221 0 0zm-166.67-0.2561c3.9659-2.6007-5.8072 1.5654 0 0zm148.17 0.16106c0.5176-1.2063-2.4605 0.88747 0 0zm121.26-0.13229c-2.2725-2.1047-1.6359 1.3576 0 0zm48.074 0.15282c-3.636-2.5724-2.6863 0.98411 0 0zm-311.17-1.2773c2.8856-4.4893-9.8331 4.9099 0 0zm0.8141 0.99218c-1.9836-1.3257-2.1114 1.0791 0 0zm169.07 0c-2.7623-0.80358-0.6611 0.73841 0 0zm4.3573 0.0135c-1.5975-1.9166-7.0188 1.4326 0 0zm36.256-0.0135c-0.03-1.2898-1.4142 1.0175 0 0zm171.94-0.10948c4.9603-1.7044 15.393-1.3415 9.3004-2.6685-0.3536 1.1526-7.6282-1.9264-4.8948 0.33066-6.809 0.89536-7.298-0.27713-11.904-0.72729-0.3835-1.5203-1.6932 2.0618-2.8442 1.9974 4.3446-0.60474 6.9375 1.3169 10.343 1.0677zm-295.88-0.27168c-2.9098-1.189 0.35 1.8035 0 0zm89.284 0.11658c-1.1769-0.10127-0.5316-0.0743 0 0zm145.52-0.26453c-3.5603-1.8594-3.0481 1.8908 0 0zm-334.43-0.84035c3.7544-2.801-9.2229 2.4428-0.2177 0.10327zm200.85 0.17545c11.182-1.5427-3.5262-2.4909-7.0902-1.8419-2.2368 0.50272 9.8617-0.31902 5.4633 2.1491l0.3363-0.12904zm81.21-0.26956c-3.4646-1.3642 1.1288 1.6127 0 0zm-195.82-0.30517c3.6119-3.1207-6.5825 1.5379 0 0zm107.64 0.0491c-2.7611-2.087-2.2942 1.8129 0 0zm3.7455 0.1505c-0.1275-1.8129-3.0694 1.0927 0 0zm78.482-0.0183c-1.1724-2.3508-2.6711 0.74941 0 0zm-193.39-0.43789c1.6631-2.9868-3.6021 1.5743 0 0zm-111.55-0.50022c0.073-1.4119-5.1089 1.607 0 0zm249.73 0.18127c0.1605-1.6345-2.2477 1.0614 0 0zm-213.5-1.0269c6.2219-3.0542-11.949 1.9729-0.1193 0.0307zm3.3073 0.46083c-1.8395-1.3202-5.0316 1.233 0 0zm-9.275-1.3891c-2.2322-0.92096-1.5966 3.1605 0 0zm65.499 1.1245c-2.7623-1.1929-0.1197 1.0165 0 0zm125.15 0c-3.4455-1.2656-1.7051 1.1917 0 0zm88.503 0.0447c-3.7728-3.5569-4.4407 0.41151 0 0zm7.6729-0.31184c-2.8342-2.2088-2.3403 1.5764 0 0zm-300.86 0.10176c3.079-1.6192-5.8418 0.81042 0 0zm237.1-0.23151c0.016-1.5556-3.0148 1.6957 0 0zm-34.608-0.30517c11.112-2.7151-16.611 0.70932 0 0zm32.63-0.34663c9.3915-3.4314 0.2787 2.097 7.5307-0.63474 2.069-2.0273-8.6198-1.45-9.7865 1.2108 0.7181-0.32092 1.4694-0.4737 2.2558-0.5761zm-95.918-0.26489c-4.6537-3.1055-5.7301 1.5129 0 0zm72.558-0.1416c-5.7441-1.9531-7.1639 1.1377 0 0zm-222.02-0.17307c-4.5024-0.10604 3.1927 0.85353 0 0zm42.436 0.0408c-1.1769-0.10127-0.5318-0.0743 0 0zm263.26 0c-1.7895-1.1725-0.2381 1.0956 0 0zm59.664-0.0338c8.8967 0.3962-8.3289-2.3577 2.9933-1.1567-2.152-2.4572-7.4878-3.767-8.3304-2.0251-9.4779-1.2337 7.231 2.5927-1.0129 2.4219 0.6105 0.87836 5.3993 0.82934 6.35 0.75988zm-332.45-0.35229c4.1038-2.8548-11.296 1.006-0.7938 0.10025l0.7938-0.10006zm127.93 0.13713c2.0396-3.314-7.638 0.021 0 0.24909v-0.24897zm12.017 0.0884c-0.5458-2.4746 8.5594 0.71012 7.5965-1.4654 8.8047 0.88526-4.3475-2.599-8.5316-0.34073-0.7808-1.7499-5.5123-0.17507-10.156 0.67942 4.1764 0.55227 7.8473 0.40106 11.091 1.1267zm183.77-0.35703c-2.9392-2.58-9.692-1.9527-0.6584 0.50365l0.6584-0.50586zm-132.16-0.0115c-1.7241-1.0973-0.5378 1.2035 0 0zm107.26 0.0228c-0.086-1.8522-2.1022-4.6958-6.0578-1.8748 1.5958 0.66088 4.21 2.6371 6.0578 1.8748zm17.717 6e-3c0.8354-2.3059-5.3279 0.58816 0 0zm-346-0.53586c-8.7814-2.9491-0.5861-0.53987 0 0zm7.0955-0.31163c4.4976-2.7609-8.4368 2.7162 0 0zm7.0907 0.5538c1.0379-0.45256 8.5818-3.4191 9.3062-1.5875 0.7467-1.3693-13.674 2.131-8.3157 3e-4 -2.4598-1.7196-5.2915 2.9698-0.9905 1.5872zm23.283-0.19843c-0.7293-1.6362-3.4209 1.696 0 0zm62.374 0.19843c-0.03-1.2898-1.4142 1.0175 0 0zm16.23-0.90199c2.7044-2.9247-7.0622 2.9914 0 0zm25.521 0.59468c-3.9677-2.7119-9.1751 0.86144-0.5427 0.29035zm-30.375-4e-3c-1.6032-2.45-3.717 0.88066 0 0zm39.459-0.0869c-3.924-1.0601 0.9353 1.7846 0 0zm-21.531-0.22042c1.6808-1.342-10.623 0.21678-0.9946 0.3464zm188.45 0.0868c0.733-1.7323-10.264-0.55461 0 0zm-306.78-0.26173c1.3653-1.3402-3.4393 0.93247 0 0zm25.4-0.29543c-2.1575-1.2582-1.769 1.5797 0 0zm76.986 0.30578c1.4489-1.8968-3.7483 0.82189 0 0zm40.754-0.14264c-1.4533-1.792-1.0859 1.5281 0 0zm68.262 0.13229c-1.314-0.15317-0.06-0.11476 0 0zm100.28 0c-3.3868-3.441-3.5369 0.73273 0 0zm-316.53-0.35702c-1.0508-2.6686-4.02 2.0834 0 0zm179.55-0.0399c-1.8051-1.6366-3.698 1.6558 0 0zm62.302 0.0153c-3.2736-0.76055-4.5452 1.1166 0 0zm59.78-0.60126c-2.6613-1.4203 1.4842 2.5191 0 0zm27.74 0.60476c-0.7387-1.9576-11.704-4.2069-3.341-1.0772 0.2628 1.3901 1.6724 1.6886 3.341 1.0772zm-236.02-0.15113c-0.9722-1.2694-1.8646 0.93099 0 0zm107.82-0.23504c-1.7947-1.7077-14.138-1.8382-5.9532-0.30062 1.7448-0.11301 4.6662 0.85955 5.9532 0.30062zm131.76-0.29403c-1.9824-1.2889-1.4724 0.99303 0 0zm4.9611-0.19844c-1.052-1.7956-1.9404 1.7106 0 0zm-305.92-0.33073c-2.4229-1.2283-0.6476 1.0493 0 0zm114.1-0.0707c-0.2565-2.327-10.033 1.0394 0 1e-3zm8.7168-0.22955c6.4722-2.1019-10.911-0.4651 0 0zm9.0764 0.33266c-1.3481-2.2092-3.4188 0.98676 0 0zm1.8521-0.0374c-2.6381 0.29995-1.476 0.15723 0 0zm5.0386-0.26905c-2.2015-3.303-7.3376 1.8107-0.2451 0.38735l0.245-0.38735zm10.543 0.0296c3.3055-1.7674 8.0577-1.168 7.892-1.8796 1.2094-0.43586 10.814-2.0511 4.806-2.903-4.3265 1.1814-4.2489 1.7661-5.745 0.4026-2.2037 5e-3 -3.7349 2.6682-11.564 2.4659-8.7069 1.337 8.3534 0.0321-1.9741 2.142 1.5771 0.5187 4.6513 0.34611 6.5854-0.22792zm-1.8229-1.0784c1.0491-1.318 1.1643 1.216 0 0zm33.683 1.0782c-6.4255-2.1988-7.3391 1.348 0 0zm99.339 0.18442c-5.9644-4.1558-0.7342 1.8174 0 0zm70.121-0.16338c-1.7004 0.20961-0.4816-0.0395 0 0zm30.882 0.2237c-1.177-0.10126-0.5314-0.0743 0 0zm-211.67-0.25476c-8.0142-2.0371-1.3163-0.51557 0 0zm14.802 0.0138c-1.9455-1.7541-4.4264 0.85617 0 0zm5.3217-0.14742c9.55-1.5678-9.9349 0.53282 0 0zm206.23-0.14073c-1.3139-0.15318-0.06-0.11477 0 0zm-268.35-0.1818c-4.734-0.0776 1.53 0.40133 0 0zm149.75-0.41352c-2.2825-1.9217-0.7684 1.214 0 0zm19.644 0.0945c-2.1003-2.0749-1.7953 1.153 0 0zm21.39-0.42992c-5.5376-2.5699 0.6676 1.9819 0 0zm-368.79-0.0261c-2.3487-0.74498-1.8675 0.97601 0 0zm253.59-0.13119c0.014-2.2065-3.4722 2.0909 0 0zm-249.35 0.0398c1.5928-1.5529-6.4146 1.234 0 0zm223.77-0.13917c2.8036-2.1364-10.232 0.81898 0 0zm134.41-0.0859c-1.006-1.635-1.4036 1.4918 0 0zm2.045-0.0716c-2.0969-2.2028-0.86 1.7702 0 0zm15.377 0.362c-7.1311-3.2045-10.026-1.0046-1.0896 0.10951 0-0.19969 1.8661 0.44144 1.0896-0.10951zm-156.69-0.62449c-8.0989-2.4015-6.6824 0.54544-0.1354 0.13536zm171.54 0.38314c1.879-1.3924-2.9512 0.53514 0 0zm-405.8-0.65609c-3.4302-1.413-1.5305 1.5773 0 0zm363.38 0.32679c-3.3112-3.636-6.7612 0.76994 0 0zm19.616-0.1746c-5.4206-1.8334 2.2469 1.734 0 0zm-15.891-0.12388c5.6523-0.97682-6.0654-0.50209 1.7198-1.7436-2.4189-0.1033-15.227-4.3691-9.534-1.5582 4.9048 1.1578-0.6289 2.3026 7.6507 3.5662l0.1635-0.26459zm63.5-0.0662c-11.849-1.435-6.6371 0.85093 0 0zm20.241 0.0662c-1.2109-1.2886-1.215 1.0235 0 0zm-433.45-0.46302c-1.2586-1.1931-3.0178 1.791 0 0zm26.457 0.0538c0.9826-2.0049-5.507 1.667 0 0zm108.1-0.41707c4.8357-1.3649-5.7557-1.0687-0.1469 0.56166zm23.011-0.16444c-0.5761-4.2822-6.7936 3.0802 0 0zm15.269 0.46152c-1.049-1.318-1.1643 1.2159 0 0zm11.289-0.13238c-0.7063-1.5474-1.8497 1.785 0 0zm189.79-0.2802c-3.4729 0.18907-1.4248 0.0138 0 0zm-17.558 0.0608c7.278-0.0353-4.539-2.9542-5.0086-2.0296 10.668 2.4906-4.9457 1.4927 5.0086 2.0296zm9.1198-0.50824c-5.0556-2.7337-2.1915 2.1873 0 0zm4.8488 0.0384c-2.6006-1.2418-0.3712 1.6183 0 0zm63.12 0.41111c-3.6995-2.6866-5.334 1.2844 0 0zm-454.16-0.35973c1.5495-1.4944-6.1363 0.39946 0 0zm39.026-0.24273c-3.5586-0.29357-5.2357-1.5492-11.774-0.77315 2.4088 0.23199 5.6087 1.5327 11.774 0.77315zm120.56 0.16844c-3.8994-0.20221 2.5408 0.97087 0 0zm6.0292-0.23453c-0.7268-1.2206-3.7641 1.8486 0 0zm6.7601 0.31348c4.2519-2.1101-4.1383-2.7415-1.5121-0.4861-7.4156-2.5348-3.7684 1.8283 1.5121 0.4861zm187.47-0.12047c-2.2507-3.6436-2.1088 1.3498 0 0zm73.762-0.16875c-6.1422-0.43976-13.564-1.4478-19.136-1.3559 5.4215 2.7889 13.189 1.425 19.136 1.3559zm-455.57-0.26826c-0.059-1.3801-2.0922 1.1276 0 0zm197.25-0.13229c2.571-0.67689 10.494 1.2274 8.2021-1.5221 5.6012-0.25945-5.1356-1.2636-7.2927-1.281-2.725 1.2338 3.2958 0.85658-2.9378 3.201 0.6813-0.1136 1.4975 0.26023 2.0284-0.3979zm62.085-0.12981c12.354-1.6423-2.9735-0.92102-6.8114-0.2338-1.9171 0.97056 6.2353 0.84544 6.8114 0.2338zm125.5 0.29041c-3.0882-1.7608-4.345 0.31895 0 0zm40.297-0.1606c-2.1953-1.709-4.7112 1.7794 0 0zm-394.16-0.25617c7.4489-3.0956-13.809 0.19299-0.5136 0.3893l0.5136-0.38846zm150.34-0.0911c-1.3324-1.9113-1.6852 1.7462 0 0zm147.55 0.077c1.3835-2.144-3.1047 1.5448 0 0zm108.04 0.0761c-5.2386-3.8278-8.2738-0.26819 0.1088 0.32639l-0.1088-0.32645zm-251.02-0.20266c1.3311-1.2682-3.5252 0.62867 0 0zm235.55 0.091c-2.7606-0.15254 0.2979 0.44346 0 0zm-52.591-0.35563c-1.724-1.0973-0.5377 1.2035 0 0zm89.333-0.24823c12.716-1.88-12.478-0.45659-5.8923-0.95347-12.073 1.5486 2.8221 1.4596 5.8923 0.95347zm-244.93-0.0466c-3.7946-1.8429-7.1095 0.42635 0.1821 0.2949zm128.63 0.0302c1.3212-1.565-5.748-1.2276 0 0zm80.147-0.0209c8.0245 0.63615-9.7841-3.1101-10.666-0.77275-4.9111 0.9002 9.6957 0.63635 10.666 0.77275zm-83.146-0.89877c-2.2235-3.1812-3.7496 2.8615 0 0zm60.409 0.68437c-4.6914-1.8581-0.6333 1.1945 0 0zm6.8439-3e-3c-0.4583-0.64349-10.16-4.1607-7.1266-0.83398 2.1889 0.47089 5.0676 1.3515 7.1266 0.83398zm-384.95-0.29123c-2.3837-1.2755-3.3146 0.95279 0 0zm251.4-0.14369c-3.2613-1.9965-5.7819 1.4883 0 0zm103.81 0.17676c-3.2109-1.9215-3.0001 0.31282 0 0zm-204.93-0.27731c5.3534-1.8091-4.8134-0.92074 0 0zm107.9-0.43894c6.6813-2.7431-1.526-2.8232-3.5048 0.43095 0.6158 0.81773 2.5659-0.17047 3.5048-0.43095zm-63.83-0.0265c10.486-0.85627 2.9033-1.4196-3.183-1.5395 5.7024 1.7908-4.0515 1.7653 3.183 1.5395zm43.392 0.18037c-1.9784-1.4431-1.487 1.1578 0 0zm-245.67-0.26458c-2.5701-1.18-4.305 1.2986 0 0zm152.17-0.97526c-3.2939-0.49461 0.902 1.4997 0 0zm16.033 0.36341c6.5716-1.7927-15.094 0.6886-4.8268 0.18211 1.609-0.0597 3.2209-0.0513 4.8268-0.18211zm27.584-0.0167c7.791-0.77691-10.722-1.1421-1.6883 0.36398 0.5649-0.11506 1.3008 0.29384 1.6883-0.36398zm48.691 0.11096c-1.5876-0.4345-0.956 0.84081 0 0zm151.59 7e-3c-4.4177-1.9155-0.1337 1.409 0 0zm-220.41-0.24726c-3.8441-1.7258-7.0867 0.62578 0 0zm12.75-0.0815c-2.422-0.9878-3.92 1.2019 0 0zm43.302-0.21907c8.5814-2.6-5.3859 0.74865-7.1485-1.5361-9.2955 0.83387-0.9881 2.3615 4.2995 1.7711 0.7881 0.1635 2.4082 0.82388 2.849-0.23496zm10.1 0.28974c-2.4235-0.61834-2.8132 0.97809 0 0zm136.25 0.0788c1.0424-1.9034-13.564-4.2384-5.9229-1.9194-9.5544-0.0207-0.2042 1.6754 4.2705 2.0014 0.5455-0.0369 1.157 0.25639 1.6524-0.082zm-221.7-0.36785c-2.6794-1.0165-2.4801 1.1773 0 0zm61.516-0.46302c-1.7803-1.8501 5.7593-0.23837-0.168-1.7073-11.237-1.3579 4.349 2.7012-7.0673 1.5298-2.3632 0.97257 7.5867 0.61627 7.2353 0.17749zm20.853-0.068c8.9881-1.1499-3.3687-1.5575-2.861 0.51404 0.9884 0.15082 1.9067-0.35197 2.861-0.51404zm11.956-0.0271c-3.9849-2.605-3.7037 1.0793 0 0zm9.1402-0.24699c5.4142-1.946 10.657-2.9369-0.012-1.5761-10.81 1.2513-3.9542 1.1923-0.412 1.3228-4.1115 0.0211-3.4763 2.1316 0.4241 0.2533zm76.468 0.39981c-3.2245-1.5223 0.7605 1.7076 0 0zm16.521 0.24926c-5.2597-4.8936-6.0696-0.36387 0 0zm-347.28-0.36658c2.5053-2.413-3.4808 0.60828 0 0zm118.68-7e-3c1.0577-1.2089-2.7311 0.66003 0 0zm122.72 0.0494c2.6896-1.1208-10.483-0.43324 0 0zm156.37-0.10235c0.257-2.5327-4.7374 0.93145 0 0zm-223.78-0.21118c-1.3732-1.3017-2.9644 1.2337 0 0zm-18.322-0.51425c6.357-2.4688 4.7694-2.1783-0.9922-0.80867 0.901 0.35034-5.699-1.0678-4.2333 1.0129 1.5076 0.11859 3.9742 0.92094 5.2255-0.20426zm10.914 0.26165c3.5045-0.43095 15.591-2.3534 5.1693-1.473-4.1079 0.17545-15.808 1.1542-5.1693 1.7254v-0.2526zm215.64 0c-3.2364-2.2143-4.3859 0.64885 0 0zm8.9297-9e-3c0.6362-1.6303-4.1835 0.75846 0 0zm15.355 0.0373c0.8305-3.0201 7.8228-0.73792 11.89-2.6868 7.2013-1.6152-10.455-1.3268-8.2714-1.7408 4.9565 2.0913-2.0896 0.47779-4.9835 3.8574-5.9718-1.9833-2.4843 1.6786 1.3653 0.57025zm2.3061-0.0406c0.2896-1.2299-3.7236 0.87244 0 0zm-248.72-0.16288c0.041-2.5277-5.0634 0.81518 0 0zm44.791-0.25231c-0.7612-0.7025 0.103-0.37485 0 0zm207.24 0.31324c-2.2049-0.99299-2.2126 0.65367 0 0zm-39.158-0.4269c-3.1027-1.0474 0.3838 1.1668 0 0zm3.7797 0.1008c-3.5892-2.9748 3.2081-0.64431-1.7953-3.2751-3.785 2.1984-1.944 3.1662 1.7953 3.2751zm-155.61-0.56382c0.7376-2.3888-3.3965-0.48093-2.2937-1.8523-6.9572-0.49704-5.6975 0.43125 0.4327 1.9616 0.2729 0.77618 1.5296 0.20347 1.861-0.10928zm-223.09-0.33073c0.052-2.3785-6.9801 2.3293 0 0zm5.2269-0.19844c-0.5187-1.6483-2.1372 2.0391 0 0zm140.56 0.20349c-5.5335-2.8462-10.987 0.82763-0.6739 0.0264 0.072 0.24716 0.9029 0.45596 0.6739-0.0264zm50.762-0.15031c8.6725-2.6081-14.832-0.34593-3.1367 0.2324 1.0454-0.0794 2.0964-0.0918 3.1367-0.2324zm30.521-0.2087c0.6267-1.4638 13.644-1.6239 3.1837-1.8917-8.2333-0.34292-4.4701 1.1656-3.3715 2.4066 0.4698 0.0545 0.1772-0.27643 0.1878-0.51493zm6.6914 0.14988c2.0516-1.7894-9.0352 1.3892 0 0zm110.55 0.29457c-0.3111-2.7696-2.0093 1.138 0 0zm47.904-0.34973c-1.4833-1.6562-8.4346 1.8808 0 0zm4.2437 0.36322c1.6361-1.91-3.1215 0.45974 0 0zm-215.48-0.36857c-1.0492-1.3181-1.1642 1.216 0 0zm85.925-0.19843c-2.2421-1.8062-3.2289 1.627 0 0zm-115.98-0.30515c7.3658-1.8988-13.612 0.20688 0 0zm3.1818 0.2616c-0.3011-1.6015-2.3209 0.99194 0 0zm29.131-3e-3c7.2682-3.2006-6.3688 0.53577 0 0zm53.496 0.0783c2.7103-1.1523-4.6091 0.2247 0 0zm11.182-0.36356c-5.7098 0.0426 3.7151 0.73551 0 0zm2.2489 0.26495c0.1742-1.1217-2.8299 0.7158 0 0zm99.748 0c-0.059-1.3801-2.0922 1.1277 0 0zm-329.01-0.39687c-0.1189-1.8096-3.7433 1.6303 0 0zm150.25 0.0161c7.2216-0.69654-10.098-3.2809-2.5418-1.2027-3.2932 1.0742 0.5781 1.2073 2.5418 1.2027zm102.55 0.13383c-4.0701-0.0998-1.2242 0.57419 0 0zm-226.25-0.32626c1.5417-1.2155 10.227-3.7734 1.7321-1.808-1.7522-1.6202-7.1221 2.6666-1.7321 1.808zm128.11 0.0556c-1.5876-0.43447-0.956 0.84076 0 0zm33.014-0.11502c-1.4296-2.4602-2.0635 1.5782 0 0zm133.29-0.0288c-1.9553-1.8848-0.9726 1.6231 0 0zm-185.23-0.10331c-1.0299-1.7779-2.495 1.4127 0 0zm30.216-0.0812c-2.1906-0.64138 0.6183 1.4062 0 0zm16.955-0.11916c12.766-1.8982-8.0662-0.17412 0.057 0.30441zm185.64 0c-4.4517-2.2488-11.968-0.76836-1.9667 0.36394 0.5369-0.37541 1.4999 0.16155 1.9667-0.36394zm-382.98-0.39093c-5.3932 0.21335-0.5379-0.0737 0 0zm31.366 0.29843c0.5919-1.1551-3.5171 0.99098 0 0zm223.96-0.25361c4.9719-1.2487 7.2424-4.5425 0.1219-1.9905 4.2423 1.0282-10.383 3.2861-0.1219 1.9905zm-250.17-0.23727c5.2045-2.36-9.5896 1.1958 0 0zm29.787-0.0602c-3.3738-1.2061 3.3928-1.0238 4.4986-2.3065 1.4927 1.7222 15-2.821 2.5136-0.96038-3.1043 0.91656-11 1.4203-8.8636 2.7749-2.8351 1.7909 1.0831 0.68047 1.8514 0.49194zm15.346 0.022c-5.2351 0.29316-0.9352-0.14964 0 0zm110.2 0.29289c-1.895-1.8102-6.5778 0.60056 0 0zm99.167-0.14372c9.5854-3.2325-8.3687 1.2952 0 0zm-231.46-0.14925c-0.9397-1.2588-0.7835 0.97422 0 0zm113.43-0.17179c-5.9883-0.51389-2.1818-0.2564 0 0zm10.26 0.17179c0.1795-2.1895-5.4506 0.11655 0 0zm88.617 0.0301c4.8112-3.7455-7.8353-1.5989-3.9501-0.89939 5.2265-2.582-0.7473 2.0733 3.9501 0.89939zm149.51-0.0153c6.3494-0.34588-7.0593-1.9446-2.9104 0.17796 0.9451-0.19375 2.0346 0.38678 2.9104-0.17796zm-264.25-0.34536c-2.4984-2.0344-0.8242 1.7282 0 0zm6.078-0.11369c-2.7692-2.0274-5.1052 0.97049 0 0zm47.543 0.28381c1.8991-1.9604-4.2546 0.79477 0 0zm63.711-0.83473c-2.9777 0.0207 0.5072 1.3649 0 0zm-106.55-0.0666c-2.1244-1.6577-1.4412 1.7199 0 0zm227.67 0.33435c-4.3741-2.5609-4.0725 0.40707 0 0zm-306.1-0.46982c2.6235-2.3208-6.6284 1.8465 0 0zm69.572 0.13899c-0.9398-1.2589-0.7836 0.97424 0 0zm72.879-0.29888c-6.3795 0.0713-0.5063 0.0328 0 0zm-176.9 0.0671c0.294-1.7182-3.8544 1.2174 0 0zm143.98-0.0328c-1.314-0.15316-0.06-0.11477 0 0zm99.097-0.0175c0.25-1.3771-1.9293 1.326 0 0zm113.29 0.11621c1.5412-1.6475-4.1579 0.29761 0 0zm-368.74-0.32938c8.529-2.522-10.936-0.82957-5.646 0.19198 1.8816-0.0704 3.7627-0.24382 5.646-0.19198zm122.16-0.0855c-3.3202-2.1738-2.3253 1.5188 0 0zm244.01 0.0516c-1.0491-1.318-1.1643 1.216 0 0zm-194.23-0.24238c-2.0206-1.7538-9.9536-0.76434-2.4867 0.21873 0.6917-0.55238 1.8457 0.51084 2.4867-0.21873zm6.1123-0.0222c8.4105 0.34116-2.7284-2.8787-0.2646-0.49131-4.2124-0.85426-0.067 1.414 0.2646 0.49131zm8.3343 0c-2.0458-1.1341-2.4908 0.93562 0 0zm15.743-0.26459c0.7749-2.5447-9.0352 1.431-0.6615 0.51611l0.6615-0.5174zm-181.11-0.45074c8.7437-0.0653 4.2337-5.7852 5.1593-2.4464-3.412 1.4963-5.8238 0.416-8.1967 2.9007 0.824 0.7019 2.1574-0.60326 3.0374-0.45437zm141.02 0.4506c-0.03-1.2898-1.4142 1.0175 0 0zm51.66 0.0931c4.6243-1.6127-8.2777 0.39333 0 0zm19.359-0.52724c-2.3758 0.11928-1.4055 0.0649 0 0zm-4.9389-0.26492c2.5081-1.9572-9.4301 1.2332 0 0zm-223.44-0.51369c-1.6022-0.40001-0.023 1.7208 0 0zm8.2683 0.4124c-2.7672-2.3014-3.4797 1.2162 0 0zm234.95 7e-3c0.4246-1.1563-5.4055 0.41306 0 0zm123.56-0.0241c-0.6151-3.292-1.8681 1.1052 0 0zm-183.38-0.40352c-0.9421-3.0518-3.188 1.825 0 0zm6.7541 0.20609c3.6476-2.0185-6.5061-1.5812-4.8482-0.61899-2.215 1.1385 4.2361 0.84666 4.8482 0.61899zm-185.49-0.43984c-0.1059-1.3456-1.9681 1.6975 0 0zm223.61 0.1421c0.9731-1.5629-4.2459 0.82103 0 0zm4.6302-0.01c-2.0089-0.20897 0.054-0.0489 0 0zm14.75-0.0541c3.4183-1.3826-6.5585 0.53908 0 0zm-244.74-0.40892c-1.889-1.2784-3.6256 1.8374 0 0zm215.28 0.23067c-4.7081-0.60689-0.2278-0.0926 0 0zm135.09-0.53327c-1.5633-1.9086-1.148 1.2334 0 0zm-359.19-0.18891c1.8771-2.1256-5.442 1.0947 0 0zm19.998-0.23628c0.3547-1.5662-4.6225 0.83271 0 0zm10.952-0.0309c8.2548-1.7558 1.6619-0.7805-0.6332-0.61917-2.739 1.1603-0.8824 1.0439 0.6332 0.61917zm-21.271-0.12768c6.1204-1.2572 10.26-0.6087 16.109-1.8698 0.4734-0.64501-6.3919 1.1709-3.6737-0.81048-3.593 0.61927-11.341-0.39637-14.596 2.9678 0.7289-0.0286 1.4763 0.0754 2.1608-0.28746zm199.03-0.30441c-1.6741-3.6208-7.6693 1.9983 0 0zm5.0932 0.33073c0.5914-1.5271 6.1251-1.6603-3.8365-1.0567 0.1058 0.77681 3.2004 1.6176 3.8365 1.0567zm2.712 4e-3c2.9631-1.4995-5.8751 0.5503 0 0zm26.119-0.18492c3.0243-2.9429-9.7312 1.2106 0 0zm131.49 0.21029c-1.5443-1.885-4.0458 1.1323 0 0zm-385.61-0.42638c-2.0238-1.6862-2.9864 1.5416 0 0zm8.8225-0.1029c1.7578-2.4286-4.9741 1.8376 0 0zm252.86-0.16544c-2.5596-3.3966-7.9751 1.2694-0.5173 0.1642zm7.595 0.31183c4.1235-3.3068-7.7189 1.9676 0 0zm91.215 0.0888c4.1799-2.0325-7.3365-0.0437 0 0zm-202.01-0.15603c-2.179-3.3861-2.5549 1.2557 0 0zm51.797-0.42852c-5.9088-0.79289 1.7707-1.2197 7.2055-2.1324 0 1.1013 0.8509 1.5065 5.8402 0.90684 3.5644 0.46009 10.965-2.4059 10.696-0.0857 2.8169-1.0456 7.2059-1.5967 13.609-0.70721 0.3393-2.1035 9.313-1.1186 12.85-2.0546-5.8316-2.0154 0.3975-1.9822 1.5505-3.5069-6.136-0.3314-5.6547 1.5229-12.069 1.9919-10.393-0.6763-0.6772-2.4462 5.074-2.1022 4.3208-2.173 3.4662-1.75 7.9314-2.8662 2.0886-2.4159-3.6506-1.9378-6.9121-1.5198-2.1779 2.6294-4.8315-1.2168-10.788 0.45974-0.9382-2.0776-6.9335-3.0217 1.752-2.0882 0.6315-0.54127-3.7798-3.3536-1.8-1.1906-11.33 0.41896-2.0822-0.41361-2.5265-2.5136 3.2939 2.1265 8.1871-0.75675 12.59 1.4685 4.3481 0.16849 5.3512 1.719 10.62 0.3117-1.2561-1.4717-13.207-1.9229-2.9379-1.4519 3.1618 0.64345 5.3005-3.5528 0.7039-2.5651-6.0785 0.65778-8.0142-4.4322-7.2116-3.2008-0.9782-0.16114 3.0903-4.2114-3.7536-3.5574-3.076 4.2539-6.1919-1.6995-9.7002 0.81359 1.1706-1.4134-9.8428 0.48194-6.8612 0.56234-7.4266 0.62242 1.4172-2.1609 5.1706-1.8487 4.2446 0.94294 12.514-5.2615 13.482-3.125 3.2337 3.808 3.3501-3.2458 3.7012-6.8527 0.5256-5.3484 4.0115-9.8315 5.6514-13.927 4.516-5.7702-2.0076-11.524 1.7658-19.029 5.1899-6.2297 1.8072-14.79 1.4148-21.331 3.9104-3.839-2.3873-9.4331 0.935-13.63 1.4913-5.2811 0.4437-16.729-7.505-14.501-4.5172-1.6711-6.5995-4.727-10.253-8.0464-1.9836-6.4248-5.9666-17.283-14.375-16.142-5.1773-0.22808-1.3598-10.308-3.2765-14.038 3.3142-3.5389 6.7393-10.727 0.5319-12.883-5.4283-2.8719-11.922-9.7965-17.75-7.3896-3.9784 4.3475-6.7885 9.8931-11.371 12.685-1.7516 6.2058-6.2797 6.4338-11.687 4.8712-6.7576-1.0887-12.455 4.146-17.412 8.3001-2.7155 5.0535-6.877 10.169-10.14 14.611-4.8554 3.7205-8.0677 8.4229-13.004 11.535-3.125 4.2878-5.633 6.0659-8.7746 9.4059-1.7536 4.4669-0.9925 10.61-4.3371 15.356-0.2293 6.6869-6.2368 9.3094-7.9949 16.044-4.6609 12.787-8.6407 24.735-11.546 38.189-1.5138 6.8367 1.9148 13.471-2.4237 19.015 3.2146 0.24668 3.3241 4.3648 3.0582 3.8593-4.1306-1.9267 0.9933 3.6884-2.8194 2.5682 2.1939 2.3408 0.2902 1.3206 0.282 3.6571 2.5181-1.6127 15.389 1.4918 14.007 0.92356-6.549-0.0913 0.5919 1.269-2.3036 1.7005 3.1887-0.94889 5.2071 2.4648 4.9735 0.81319 3.3763 0.40926 8.4076-0.0128 10.989 1.9994 3.6991 0.12815 13.837-0.83066 10.31 1.113-8.9132 1.3277 6.0126 2.045 1.4553 3.7667 8.2933-0.12528 2.2198 1.4875-1.0038 2.81-5.9885 1.6587 8.4582-0.15172 6.5767 1.0903-1.0084 0.95897 7.1405-0.22442 4.0839-0.95097 5.8594 1.1846 4.1263 2.6282 12.248 3.0437 1.8913 2.2775 2.7723 0.31677 8.6544 0.0799 1.7065-0.4116-15.97-2.0431-4.9698-2.3216 4.0578-1.2858 6.5348 1.2446 9.4528 1.7793 4.225-0.10898 8.2712-0.67424 4.8926-1.469 9.1648 0.68644 17.95-2.2937 27.829-1.1482-6.6666 1.3727 12.569 0.52694 1.5117 1.3423-8.8926-1.5085-4.8716 1.28-12.258-0.48988-0.6212 0.58063-11.536 1.4891-10.186 3.522 0.9473 1.4298 4.9482 0.38366 6.5527 0.0696zm31.354-2.7738c2.9116-0.0482-1.1721 0.39195 0 0zm5.1009-0.94112c-10.707-1.2704 12.201-2.3056 0.2015 0.46264l-0.2015-0.46302zm-51.46-0.18391c-1.7223-1.4716-9.144-0.54223-15.493-1.2846 12.264-1.652-10.032 0.17501-4.7449-1.9588 4.9065-0.7733 3.7815 1.354 12.347 0.93107-0.5931 2.0686 11.818-0.42422 15.901 0.37409-2.5164 1.024-6.2569 0.74068-8.011 1.9383zm11.032-0.45435c9.7621-3.363-1.035 2.0596 0 0zm33.536 0.17524c0.03-1.2898 1.4142 1.0175 0 0zm-80.759-0.44794c2.9115-0.0482-1.1722 0.39196 0 0zm78.1-0.0588c1.5903-0.5571 0.2698-0.2196 0 0zm-63.024-0.20479c3.343-0.0905-0.8942 0.39816 0 0zm50.872-0.16356c-5.2208-1.9217-10.502-0.48118-4.3717-1.7962-0.9572-0.92306-6.8085-0.18764 4.1769-2.4471 3.3241 1.2495 15.614 0.6734 7.4206-0.17385 3.1295-1.703-10.212-2.127-7.532-2.4415-10.15 1.8291-0.507-2.1382-0.6864-1.3165 4.6637 1.674 11.537 1.111 15.142 2.9717-11.072-1.03 2.4042 1.7972 6.3742 0.73518 5.6777 2.1736-6.6707 1.3757-9.6815 1.8508-5.6471 0.20557-4.665 2.9972-10.842 2.6175zm4.679-2.1548c8.5486-1.8676-9.3095 0.36607-0.5605 0.0144zm-64.224 1.8536c2.4916-0.3366 0.6784-0.15934 0 0zm4.5055 0.1333c-0.67-1.5284 6.8845 1.0891 0 0zm-9.6133-0.24707c-0.433-1.3671 2.7604 1.0771 0 0zm7.7541-0.2858c1.5876-0.43447 0.9559 0.84076 0 0zm37.049-0.22918c4.6932-1.4138 1.7473 0.48114 0 0zm7.276-0.0161c2.6779-1.7508 1.4178 1.0198 0 0zm-17.651-0.65551c8.9094-1.9078 13.519-0.21312 1.4379 0.16522 2.7453-2.5551-2.5096 1.0923-1.4379-0.16522zm43.051-0.0329c10.704-2.5324-2.512 1.5669 0 0zm-76.332-0.69789c-9.3434-1.4355 4.3656-1.7949 8.0626-1.026 6.2907 0.97756-7.2339 1.5833-8.0626 1.026zm8.7313-0.49659c-2.2776-1.1874-0.9581 1.2852 0 0zm38.66 0.42746c3.5296-2.8088 14.314 0.77771 0 0zm-24.011-0.54602c10.814-1.425-0.8743 1.124 0 0zm-11.209-0.146c3.5372-1.0278 5.0942 1.1772 0 0zm17.609-1.0724c4.238-0.86771 0.3007 0.595 0 0zm26.974 0.0368c-0.018-1.3889 5.4669 0.44688 0 0zm-49.477-0.27085c-10.13-0.50805 5.0775-1.1619 8.5989-2.3289 8.8775-2.3672 3.2649 2.8424 7.0756 0.99011 10.911-0.8819 5.892 0.85097 0.5973 1.0947-5.421-0.11318-10.895 0.38284-16.272 0.24407zm11.046-1.7863c-3.343-0.0905 0.8941 0.39817 0 0zm19.187 1.8511c2.9116-0.0482-1.172 0.39197 0 0zm-45.366-0.38558c-1.4653-1.189 12.79 0.0418 4.9297 0.17177-1.6265-0.12628-3.3514 0.25722-4.9297-0.17177zm56.01-0.22481c7.699-0.86749 0.052 0.98793 0 0zm36.714 0.0747c4.9374-0.0491-1.7827 0.34924 0 0zm5.0764-0.31689c-4.0346-1.2134 3.1582 7e-3 0 0zm5.5695-0.0225c-0.6715-2.409 10.16-0.6735 0.9282-0.21063 1.3378 0.86944-1.8081 0.5778-0.9282 0.21063zm-94.393-0.52721c7.7877-1.7154 0.1336 0.82889 0 0zm36.386 0.0728c4.9374-0.0491-1.7827 0.34924 0 0zm9.2568 7e-3c3.343-0.0905-0.8941 0.39817 0 0zm31.155-0.0772c3.1054-0.84802 0.681 0.27383 0 0zm-68.395-0.53406c-0.9931-1.1076 2.9682 0.77049 0 0zm40.477-0.071c-5.6333-0.12612-11.058-0.10797-14.425-0.9508 6.0705-0.64112 8.5903-1.573 7.9462-2.5988 3.5855 3.3399 8.6118 1.2949 12.832 2.6661-2.5265-0.33562-4.0222 1.8962-6.3539 0.88344zm-1.2675-1.083c-7.4188-2.0874-9.4919 1.6356 0 0zm-52.307 0.88935c3.5227-1.0762-0.098 1.1895 0 0zm3.561-0.0175c-0.1528-1.7064 1.5158 1.1887 0 0zm23.36 0.0998c-2.4775-1.8915 6.6851 0.35444 0 0zm-12.369-0.60388c-8.4687-0.15862 10.295-3.1707 3.5719-0.2953-1.1533-0.23818-2.6026 0.81562-3.5719 0.2953zm-6.6918-0.7551c-0.4767-2.2155 0.8346-0.51625 4.6321-1.1045 3.1836-0.40155-4.7228 2.3317-4.6321 1.1045zm72.573-0.0463c5.6054-0.81858 4.8268 0.94945 0 0zm-89.958-0.26458c-4.0391-1.3851 6.3554-0.0143 0 0zm33.668 0.0822c3.343-0.0905-0.8942 0.39816 0 0zm49.703-0.25463c-5.3191-0.73806-11.14 0.14383-7.3037-2.1263 3.1999 1.4429 12.489 0.47935 12.132 1.1166 4.7172 0.71055-2.7058 2.4399-4.8278 1.0097zm-80.356-0.13626c1.8815-0.9158 2.23 0.63195 0 0zm4.267-0.52795c3.0146-3.4267 3.1563 0.9517 5.2853 0.0341-1.146-0.44063-5.361 1.5063-5.2853-0.0341zm16.927 0.30747c2.2746-1.3307 0.2148 1.1918 0 0zm14.684-0.0251c-12.852-0.87419-2.0548-0.64498 4.1503-0.4527 4.8258 1.5446-3.0246 0.16066-4.1503 0.4527zm25.588-0.14015c-0.3805-1.3586 2.54-0.47286 0 0zm-16.063-0.36388c0.8924-1.1455 1.9258 1.5113 0 0zm-51.594-0.26458c-1.0577-1.209 2.7311 0.66005 0 0zm48.558-0.0114c5.9014-0.37606 0.8308-0.12926 0 0zm-57.292-0.4259c-8.4871-0.34363-1.9225-3.2258 1.3255 0.1418-0.4205 0.23099-0.8211 0.71975-1.3255-0.1418zm26.822 0.0388c3.0521-1.384-2.207 1.5976 0 0zm35.778-0.0315c3.5846-1.3457 1.3663-0.56546 0 0zm10.6 0.15259c-4.794-1.2163 6.1145 0.5982 0 0zm-31.856-0.23302c-1.6461-2.8321 6.5447-0.41588-0.066 0.2459zm-6.1515-0.54792c1.3021-2.066 6.7476-1.5275 0.732 0.52834-0.3279-0.0359-0.8065 0.17983-0.732-0.52834zm13.758 0.29858c4.6358-1.148 7.4157 0.46934 0 0zm47.742-0.1447c3.7451-1.4642-1.4611 1.473 0 0zm-68.556-0.28234c2.594-2.8255 1.3975 1.8646 0 0zm10.363 0.12846c0.03-1.2898 1.4142 1.0175 0 0zm-26.937-0.27438c4.5524-2.0923 4.0598 1.4665 0 0zm4.6228 0.0423c-3.4424-2.6672 6.8031 1.2132 0 0zm9.6504-0.42939c2.3982-1.6928 0.29 1.5007 0 0zm56.359 8e-3c-0.7585-1.924 5.7457-2.7197 3.5324-0.13989 0.3313-2.7954-3.4979 1.1909-3.5324 0.13989zm16.232 0.12065c0.1548-2.1783 1.6307 0.79506 0 0zm-96.879-0.32496c2.8106-4.1147 6.7737-0.8758 4.0101 0.34237-0.37-0.28303-4.8344 0.32374-4.0101-0.34237zm20.045 0.10848c0.224-1.392 1.935 0.41509 0 0zm-1.3502-0.30859c-0.073-1.3396 1.9573 0.85235 0 0zm26.458 0c1.971-1.1504-0.1195 1.0615 0 0zm17.859 0c3.4441-0.85573-1.5501 1.0022 0 0zm15.392-0.15105c3.2085-1.1773-0.6745 1.383 0 0zm-69.97-0.36727c0.19-2.3306 1.7846 1.1945 0 0zm13.7 0.25374c1.1768-0.10128 0.5317-0.0743 0 0zm42.613 0.0238c2.9826-1.6994 6.3344 0.7661 0 0zm26.726 6e-3c2.7721-0.7425-0.026-0.35087 0 0zm-2.1458-0.31181c1.2283-0.27303 0.2467-0.18315 0 0zm-57.465-0.16576c2.9115-0.0482-1.1722 0.39195 0 0zm24.889-0.0119c8.9318-1.5136 1.8985-0.41014 0 0zm59.839-0.0693c1.1769-0.10127 0.5317-0.0743 0 0zm-68.463-0.19844c1.9262-3.6922 2.0083 0.85895 0 0zm-6.8885-0.41587c5.9562-1.4321 7.7405-0.49972 0.1342 0.34885l-0.1342-0.34972zm-1.6325-0.35155c3.7428-1.3888-1.5623 1.608 0 0zm-50.677-0.22476c2.8283-1.2456 1.739 1.5825 0 0zm18.521-0.0725c10.457-1.3087-1.7025 0.97791 0 0zm13.866-0.0868c-0.9791-2.4017 2.4989 1.991 0 0zm-34.455 0.0624c1.2059-2.908 2.6536 0.78125 0 0zm27.601-0.0354c-5e-4 -1.0101 2.3578 1.1415 0 0zm10.029-0.23678c5.2687-3.3145-1.4806 2.504 0 0zm101.1 0.0949c-2.2683-1.6542 2.9144 1.143 0 0zm-50.403-0.12274c-0.92-1.2471 2.0553 0.97113 0 0zm42.069 0.0308c2.1847-1.7274 2.5157 1.2263 0 0zm3.9688-0.0308c-2.7029-1.1208 3.9436 0.70136 0 0zm-26.855-0.26458c0.217-1.1876 2.2716 1.3206 0 0zm-67.725-0.2513c-45.692-20.334 36.956 13.746 0 0zm6.6756 0.0642c3.9335-0.0496-1.4807 0.36739 0 0zm-39.889-0.63138c1.4064-1.5687 0.8252 1.6961 0 0zm104.64 0.0249c0.059-1.3801 2.0921 1.1277 0 0zm-112.65-0.18671c5.4999-0.0442-2.3599 0.37435 0 0zm35.319 0.0353c3.2241-1.2895 1.477 0.84539 0 0zm20.946-0.15328c4.3878-3.2011 2.5842 0.57775 0 0zm-42.176-0.3679c7.5531-3.6082 3.8373-0.39197 0 0zm24.077 0.15267c1.7043-2.3028 2.175 1.4434 0 0zm-13.758-0.11076c1.2353-1.0301 2.2465 0.73135 0 0zm26.194-0.16314c-1.3653-1.3402 3.4393 0.93244 0 0zm-47.757-0.27011c-7.3322-0.41484 9.3256-0.75756 0 0zm26.258 0.11337c-4.7077-0.16295-14.206-1.1304-3.7072-1.0463 0.8029-0.92035 6.3033 0.62174 3.7072 1.0463zm-16.6-0.37243c2.8597-0.97059-1.2889 1.3881 0 0zm18.984 0.0822c1.1389-2.157 8.5265 0.44822 0.463 0.12105l-0.463-0.121zm10.967-0.2427c-9.7024 0.45384 0.3086-2.0621-9.0365-1.6378-7.0541-0.13424 7.3499-2.5241-5.7008-1.245-6.9873 0.73884-2.6459 2.0331-10.98 0.67883 5.2733-2.7628-3.4828-0.59523 1.3622-2.1543 0.7707-2.3032-7.3624-0.92211-7.8445-0.71175-8.0613 2.1067-7.0205 0.44188-6.7469-1.2372 4.8048-0.84988 11.818-1.1937 15.833 1.1763 4.2192 3.0301 8.7766 0.76514 14.064 0.60863 1.5999 1.2556 7.0031 3.7749 10.188 3.7825 3.6207-0.64505-0.1925 1.886-1.1376 0.73982zm21.714 0.24172c2.9115-0.0482-1.1722 0.39195 0 0zm11.504-3e-3c5.4999-0.0442-2.3598 0.37435 0 0zm-67.006-0.34237c1.3431-1.0272 0.1971 1.1526 0 0zm52.816-0.16846c-0.6736-1.5863 1.8884 1.4846 0 0zm68.231 0.16846c-0.92-1.2472 2.0554 0.97114 0 0zm-22.49-0.26458c-0.8798-1.2595 2.2105 0.86109 0 0zm-23.337-0.67908c3.9783-1.0073-1.5383 1.3121 0 0zm10.306 0.23212c-1.7573-1.3279 3.6226 0.52278 0 0zm-87.665-0.38164c-2.5353-0.719 9.3269-0.29978 0 0zm5.7107 0.034c-2.8371-1.0039 9.6855-0.21886 0 0zm54.688 0.0962c-3.1601-0.92351-16.441 1.2498-12.619-1.1536 4.1415-0.54584 2.5777-0.239 7.4177 0.23718 1.3788-0.86159 10.496 0.34382 5.2012 0.9164zm7.9163-0.24477c3.4977-3.8036 4.3088 2.413 0 0zm-71.779-0.0246c-1.3884-2.9837 14.395-1.6226 7.1902-1.1738-2.5269 0.1-6.4486 0.73192-7.1902 1.1738zm66.854-0.22283c2.2239-0.19059 0.6209-0.14248 0 0zm3.5057 0.0661c-3.712-1.7603 3.1276 0.55975 0 0zm28.575 0.14835c3.343-0.0905-0.8941 0.39814 0 0zm-23.437-0.45717c0.8969-2.389 4.562 0.95175 0 0zm16.888 0.11038c0.03-1.2898 1.4142 1.0175 0 0zm-68.717-0.32679c3.4077-0.28521-1.9584 1.0861 0 0zm20.166 0.0622c3.9232-1.3149 10.716-2.0317 1.6405 0.2607l-1.2437-4e-3zm3.7041 0.16314c1.7568-1.0346 1.933 0.65184 0 0zm-51.66-0.70057c6.6243-2.424 1.0799 0.88009 0 0zm42.4 8e-3c-2.1757-0.93903 4.4173 0.48657 0 0zm40.947 0.0774c3.9335-0.0496-1.4808 0.36737 0 0zm12.498-0.46455c-1.6111-1.9468 3.3399 1.4961 0 0zm18.918 0.12253c-1.1633-1.0554 2.2192 0.61716 0 0zm6.6146 0.0695c5.1963-1.303 3.7965 0.29285 0 0zm-76.575-0.1648c5.1336-1.1312 4.0942 0.53078 0 0zm48.264-0.16934c1.971-1.1504-0.1195 1.0615 0 0zm-14.126-0.5992c-2.0396-2.1449 6.6853 1.177 0 0zm13.658-0.17457c-4.1974-1.8848 10.813-0.50824-9e-4 -1.7e-4zm10.39 0.14062c0.8707-1.0851 1.8808 0.76132 0 0zm-103.62-0.3733c4.9612-2.8774 5.5856-0.11262 0 0zm47.922-0.0519c1.7895-1.1725 0.238 1.0955 0 0zm39.82-0.16301c5.2408-1.0967-3.3687 1.5575 0 0zm11.112 0.16301c1.2108-1.2886 1.215 1.0235 0 0zm-85.703-0.0984c3.6552-1.1345 2.4036 0.5515 0 0zm92.913-0.23439c1.1882-1.8156 10.38-1.2912 0.8599 0.27298l-0.8599-0.27294zm-69.956-0.45712c-0.4168-2.6826 2.5841 1.9153 0 0zm27.16 0.26074c3.9182-0.809-0.2978 1.1666 0 0zm10.186-0.036c-10.959-0.56882 7.965-0.85852 0 0zm-25.746-0.17222c-5.0739-1.3699 2.9622-1.0128 5.1473-0.79471-1.3189 1.2378-3.4941 0.76449-5.1473 0.79471zm8.3273-0.0236c0.016-1.6093 3.0853 0.52361 0 0zm42.962-0.0145c0.2087-1.9581 1.7667 1.1421 0 0zm-71.846-0.28281c-7.921-0.69581 2.155-1.8289 2.2075-1.1905 0.7452 0.76985-1.6375 1.9096-2.2075 1.1905zm4.3656-0.26459c2.8036-1.1377 1.8804 1.1997 0 0zm-31.089-0.2649c1.9784-1.4431 1.4869 1.1578 0 0zm37.571-0.0243c4.0045-3.5341 5.7595 0.29837 0 0.20459zm45.244 0.0243c1.0491-1.318 1.1643 1.216 0 0zm7.038-0.10623c3.8353-2.6184 3.3205 1.5365 0 0zm3.2807 0.1419c4.9544-2.7987 5.83 0.65867 0 0zm-63.532-0.39439c9.2054-1.2984 2.2841 0.5855 0 0zm13.165-0.0382c2.231-1.4941 2.6617 1.9484 0 0zm57.246 0.14685c3.8587-1.3632 8.1417 1.038 0 0zm-39.071-0.40423c3.333-2.9466 6.6481-0.38442 3.1309-0.13944 4.6667 0.0968-4.9835 1.1718-3.1309 0.13944zm6.7918 0.28977c0.9253-1.8393 1.7052 0.95414 0 0zm2.9104-0.0513c3.5573-2.1346 7.6115-1.3015 2.414 0.0189-1.5909-3.0013-0.3132 1.5926-2.414-0.0189zm36.596-0.21344c-0.7334-4.4205 2.17 1.8682 0 0zm5.681-0.15213c-10.008-0.77972 2.0246-2.4043 3.1891 0.18977-1.0255-0.0284-2.4131 0.91075-3.1891-0.18977zm-92.349 0.0698c-2.1522-1.824 6.0519 0.77781 0 0zm102.2-0.0822c0.9397-1.2588 0.7835 0.97423 0 0zm-85.196-0.17415c-3.7196-1.7826 3.5801 0.39872 0 0zm40.283-0.15658c2.2291-1.5038 1.3218 1.5853 0 0zm40.018 0.0662c0.038-0.94283 1.7673 1.1379 0 0zm-75.539-0.26459c1.314-0.15316 0.06-0.11477 0 0zm39.952 0.0185c5.4071-1.5054 0.4689 0.74912 0 0zm-26.657-0.34935c4.8462-1.2278 3.6866 1.421 0 0zm5.2255-0.19833c2.2151-0.96856-0.8999 1.1278 0 0zm28.31 0.01c-1.8943-1.0506 3.0185 0.29554 0 0zm-77.324-0.31393c-1.7231-1.5304 0.5061-2.1548 3.7703-1.2464 1.3451 1.7181-5.7329 1.5188-3.7703 1.2464zm16.936 0.11727c3.9334-0.0496-1.4807 0.36736 0 0zm61.976-0.0774c-1.0422-1.2981 2.86 1.0496 0 0zm33.337 0c1.1113-1.2464 1.7893 1.1704 0 0zm-101-0.18335c2.9116-0.0482-1.1722 0.39196 0 0zm31.017-0.0812c-1.6372-1.0547 2.873 0.89951 0 0zm46.17 0.0122c-8.3906-1.8372 8.025-1.4435 12.038-1.3112 6.3866 1.5694-6.3196 0.4447-9.5007 0.76497-0.7127 0.0917-1.9141 1.633-2.5378 0.5462zm-103.82-0.22542c1.2244-2.8498 6.3001-2.8e-4 0.1327 0.21467l-0.1327-0.21476zm50.239-0.44702c3.9085-1.2364-1.9192 1.5856 0 0zm44.582 0.0945c3.1561-0.38901-0.064-0.0516 0 0zm25.268 0.0367c0.03-1.2898 1.4142 1.0175 0 0zm-109.41-0.26668c2.7522-2.6097 2.0753 0.64653 0 0zm64.172 0.0262c-9.2529 0.86391 1.0357-2.424 0.5184 0.2029l-0.5184-0.2027zm4.6358-7e-3c3.1928-1.7794 3.425 0.0662 9.2334-0.77396 9.9683-1.0638 5.2074-0.52879 4.244 0.82699 1.4055-1.1096-13.085 0.87806-13.477-0.053zm18.438 0.046c-1.9853-1.7085 3.1598 0.26983 0 0zm26.18 0.0154c-2.4991-2.3346 2.2894-3.6069 3.3364-0.60169-6.7434-1.6109 3.1265 1.621-3.3364 0.60169zm3.7843-0.34409c0.8778-1.9226 0.857 1.8688 0 0zm-95.779 0.0611c-3.763-1.4633 7.3116 0.21443 9.525-0.80418-0.9231 1.7253-7.2367 0.43688-9.525 0.80418zm14.42-0.0611c2.5755-1.7942 6.0188 0.51858 0 0zm16.312 0.0132c0.9278-1.1291 0.1735 1.0634 0 0zm36.473-0.0132c1.2107-1.2886 1.2149 1.0235 0 0zm29.898 0.13909c3.6451-3.0671 8.895-2.7486 2.3165-0.40381-1.1763-0.58416-1.7139 0.80047-2.3165 0.40381zm-107.01-0.36923c4.3499-1.4387 2.7177 1.2356 0 0zm3.7919 0.0317c-2.0461-2.5966-6.4395-1.4514 1.6501-1.9182 0.1122 1.3174 0.3005 2.2056-1.6501 1.9182zm17.891-0.0661c0.03-1.2898 1.4142 1.0175 0 0zm10.583 0c6.0661-1.3986 4.4222-1.024 0 0zm4.6302 0.16061c1.2118-0.92433 1.8387 0.78804 0 0zm5.6885-0.16061c2.4722-1.2451 0.9667 1.176 0 0zm72.699 0.0812c2.9116-0.0482-1.172 0.39196 0 0zm-129.45-0.3175c1.9892-2.0349 0.6091 1.0689 0 0zm43.399-0.018c-0.9534-1.3829 3.0147 1.2092 0 0zm26.863-0.15105c-1.2986-1.7418 3.903 0.9426 0 0zm20.225-0.12385c2.8702-0.93725-0.2741 1.2328 0 0zm22.376 0.0296c3.5788-0.38212 0.4802-0.17588 0 0zm-66.958-0.67297c5.465-2.4954-2.6419 2.4339 0 0zm3.638 0.4681c1.6435-1.79 8.0871-1.676 1.1952 0.17522-0.3956-0.0712-0.8391 0.0758-1.1952-0.17522zm-51.395-0.36118c-7.501-0.59133 5.7043-0.32983 0 0zm5.6208-0.0539c4.1081-1.9854 4.6535 0.21181 0 0zm54.969 0.0527c-3.1816-1.9311 2.9454 0.33916 0 0zm18.521 8e-3c1.0491-1.318 1.1644 1.2159 0 0zm30.624-0.22971c-12.484-0.0915-2.8282-2.3038 0.1349 0.51593zm21.913 0.25744c0.3784-1.761 1.3985 1.0787 0 0zm-129.27-0.31703c1.4062-1.5688 0.8254 1.6962 0 0zm27.781-0.23982c1.2109-1.2886 1.215 1.0235 0 0zm10.583 0c2.3793-1.1609 1.5213 0.81874 0 0zm22.233 0.0257c-0.4563-1.3712 10.532 0.59561 0 0zm17.455-7e-3c-3.3628-1.1417 6.5527-0.20761 0 0zm3.5831-1.3e-4c0.084-1.5862 1.3554 1.0596 0 0zm8.3893 0.0514c-2.6732-1.2934 6.2924-0.13733 0 0zm29.766 0.0124c-3.3908 1.0728-1.7444 0.50359 0 0zm-23.221-0.34941c1.1836-0.9819 4.1518 0.78149 0 0zm12.836 3e-3c-2.657-0.90019 7.1357 0.50029 0 0zm-24.275-0.18672c5.4999-0.0442-2.36 0.37435 0 0zm2.5796 33.26c-0.3951-1.26-4.4313 0.90629 0 0zm16.933 0c-1.7895-1.1725-0.2381 1.0955 0 0zm33.734 0.087c-1.4252-3.2472-4.1866 2.0692 0 0zm-110.07-0.35136c-0.9398-1.2588-0.7836 0.97422 0 0zm42.598 0.0338c-4.3233-1.7915-1.8841 0.7598 0 0zm193.94-0.0478c-3.5646-1.5328-8.8011 1.5194 0 0zm-384.67-0.53289c-0.5368-2.025-5.8751 1.7703 0 0zm240.85 0.0448c-1.1397-1.7207-6.8261 1.1816 0 0zm115.09 0.0769c1.7694-3.2803-4.4346 1.2073 0 0zm-211.95-0.27943c-0.8902-2.3405-6.3379-0.64789 0 0zm102.37-0.10306c0.6932 0.0553-3.1097-2.9994-2.0581-0.82124-4.0952 0.8921 0.7709 1.6173 2.0581 0.82124zm-11.84-0.51524c-3.4808-1.1558-3.3773 1.1745 0 0zm1.786-0.0661c-1.308-1.0357-2.4957 1.0439 0 0zm22.423 0.0661c-0.5857-1.3087-3.8563 1.0954 0 0zm103.79 0.091c-2.7607-0.15254 0.2978 0.44346 0 0zm-13.3-0.35563c-1.9834-1.3257-2.1115 1.0791 0 0zm23.812-0.26458c-2.6033-0.41592 0 0.22734 0 0zm5.4456 0c-3.1115-0.89056-0.4833-0.28149 0 0zm-127.75-0.1646c3.9297-1.5547-10.192-0.12825-1.1245 0.13236zm-242.29-0.55073c8.1716-0.53211-4.0591-2.394-6.0854 0.15102 1.9916 0.33944 4.1007 0.15178 6.0854-0.15102zm383.61 0.16029c-0.48-1.8645-1.7503-0.57827-3.1355-3.3874-6.0944-1.3206-3.3495 2.618 0.082 1.8298 0.2841 0.19055 0.136 3.221 3.0538 1.5576zm-372.64-0.79653c-3.2901-1.8852-8.6514 1.8203-0.2514 0.2359zm353.51 0.15253c-7.2506-2.292-2.0093 1.5711 0 0zm10.638 0.097c-0.2044-3.2944-3.4579 1.1465 0 0zm-357.72-0.61654c0.7664-2.3525-9.6593 1.4127 0 0zm27.962-0.13351c5.6797-2.1711-7.3595 1.2601 0 0zm88.488-0.23905c1.4216-2.3896-7.6082 0.24792 0 0zm115.59 0.0723c1.8668-1.8658-5.9329 0.85547 0 0zm-258.83-1.1562c-0.03-1.2898-1.4142 1.0175 0 0zm27.28-0.12674c-2.5498-1.6915-7.0522-0.60948-0.9366 0.39132zm109.7 0.0397c4.1364-1.7828-9.3903 0.58527 0 0zm-15.305-0.44548c-3.1221-0.0552-1.3283-0.0619 0 0zm140 0.022c11.226-1.2032-6.5326-3.3462 0.5292-1.3336-1.3239 0.8774-10.816 2.3896-0.5292 1.3336zm8.3344 0.24598c-1.3141-0.15318-0.06-0.11476 0 0zm-253.21-0.59319c8.1191-2.4782-1.5912-1.7491-2.3425 0.59711 0.7833-0.19023 1.5897-0.29903 2.3425-0.59711zm52.802 0.31102c-1.7301-0.79196-0.4134 0.10609 0 0zm76.586-0.1133c10.083 0.099-4.6942-3.0339-7.1437-1.693 9.0688 1.4681 0.9396-0.14988-4.3656 0.97546 4.0908-0.15285 7.4197 1.2028 11.509 0.71758zm-161.17-0.41942c-2.9709-1.5611-8.6599 0.70939 0 0zm12.587 0.099c5.4658-3.0871-12.958 1.6147-0.1314 0.3425l0.1314-0.34248zm-10.7-0.0779c-2.6033-0.41583 0 0.22723 0 0zm409.22-0.45607c0.4472-3.9397-3.5464 0.10477-5.2379 0.0183 1.5296 1.0771 3.6411 0.69987 5.2379-0.0183zm-391.18-0.0337c6.8033-5.0881-4.9669 1.9161 0 0zm7.8462-0.0726c3.6731-1.1236-7.3965-0.3398-1.3533 0.5624zm-11.734 0.0332c-0.059-1.3801-2.0921 1.1276 0 0zm115.87-0.81756c-2.184 1.2098-0.042-0.10018 0 0zm3.1349 0.75141c2.4042-2.3938-3.3164 1.2407 0 0zm-126.16-0.63928c-8.4811 0.81195 1.1328-0.82161 0 0zm129.4 0.42325c0.3029-1.6919-2.3058 1.311 0 0zm-100.29-0.26128c0.8867-1.3922-4.5824 0.76608 0 0zm-35.653-0.16809c-3.3429-0.0905 0.8941 0.39817 0 0zm160.4-0.35459c-0.3369-0.66897-4.1545 0.90577 0 0zm-150.74-0.16574c-2.7606-0.15253 0.2978 0.44348 0 0zm260.68-0.35562c-3.0523-1.1365-2.3545 1.1836 0 0zm-230.3-0.33735c-1.1188-0.0182 0-0.0428 0 0zm6.7006-0.40116c-4.0358-0.87822-0.6321-0.18379 0 0zm108.64 0.20934c-0.9398-1.2588-0.7835 0.97426 0 0zm121.05 0c-0.3685-1.0746-2.6264 1.2587 0 0zm-123.43-0.52912c-3.1031-0.8632 11.094-1.5264-2.2489-1.3692-5.5481 0.90099-0.085 2.01 2.2489 1.3692zm114.58-0.11658c-2.5865-0.9276 0.8042 1.268 0 0zm-256.2-0.67704c-5.2058-0.17358 1.3647 0.72491 0 0zm262.39-0.0426c2.2166-2.2111-3.646 0.49092 0 0zm164.38-0.2789c-0.5626-0.83802-17.314-1.0187-10.117-0.10541 3.1849 0.5815 6.4645 0.86034 10.117 0.10541zm-440.16-0.21947c7.8325-1.7282 3.5289-2.8707-2.2828-0.81195-4.4515 0.42393 2.0461 1.8353 2.2828 0.81195zm7.5067 0.27625c-3.7173-1.2053-5.9434 1.1027 0 0zm265.91-0.26458c-3.7206-0.91839 0.6057 1.1352 0 0zm-125.94-0.91649c1.849-1.5256-4.6025 1.1438 0 0zm4.4815-0.11528c-3.315-1.5503-4.5702 0.88878 0 0zm9.5486-0.27959c-1.5877-0.43453-0.9559 0.84086 0 0zm-24.354-0.48731c-4.6173-0.13669-0.5254-0.0607 0 0zm-110.33-0.0534c-1.1769-0.10128-0.5315-0.0743 0 0zm-18.388-0.53303c2.3135-1.7459-6.0971 1.1626 0 0zm253.79 0.33162c0.9026-0.74904 7.4595-1.884 1.8057-1.2751-0.3229-0.32784-14.782 0.71682-7.2998 1.3975 1.8159-0.11354 3.7104 0.22703 5.4941-0.12241zm-260.4-0.26162c-2.9984-2.0972-5.8744 0.56752 0 0zm271.92-0.3072c6.0604-1.8918 1.7928-1.1591-0.4681-1.0365-7.9968 0.39095-5.6222 0.65238 0.017 1.5206l0.1348 0.0214 0.3158-0.50564zm5.1031 0.0976c1.2227-1.6404-3.8349 1.3765 0 0zm-274.64-0.38571c-1.3141-0.15316-0.06-0.11477 0 0zm128.46-2.6458c-1.7241-1.0973-0.5378 1.2035 0 0zm2.2489 0c-1.6461-0.89987-2.3222 1.2175 0 0zm-1.8521-0.92297c-4.91-2.1702-6.4246 1.5663 0 0zm331.47-0.29046c3.5039-2.209-7.6158 0.89178 0 0zm-185.48-0.63865c-8.1561-1.054 0.2462-0.50605 0 0zm-19.94-7.3096c0.024-3.1623-3.4285 2.0505 0 0zm-323.43 53.082c2.7624-0.80343 0.6608 0.73821 0 0zm13.144-0.0863c5.2728-2.3484-2.055 1.9517 0 0zm12.425-0.046c4.0694-1.6332 3.3407 1.6701 0 0zm40.384-0.31565c2.9115-0.0482-1.1721 0.39195 0 0zm13.062-0.023c2.7484-2.0363 5.1685 0.0907 0 0zm-71.606-0.32279c3.7199-1.042-0.7057 1.4045 0 0zm26.528-0.30708c-0.8367-1.4756-13.031-2.5588-4.6995-2.3357 2.2706-2.0066 13.491 0.42929 7.564 2.2466-0.7851-1.6721-3.1619 2.1085-2.8645 0.0891zm-28.512 0.0425c2.1435-1.2128 0.5864 1.1386 0 0zm10.461-0.14452c1.9716-2.2283 8.4962-2.626 2.9003-0.25736 1.1269 0.76233-4.4772 0.9514-2.9003 0.25736zm53.171-0.3538c3.3111-3.6456 0.4922 2.3716 0 0zm-46.037-0.34054c6.4923-0.91779 6.7793 0.66059 0 0zm463.11 0.11004c6.9607-1.4581 7.17 0.38537 0 0zm-476.49-0.47022c5.5354-2.7612 8.594 0.89894 0.1133 0.40527-0.301-0.0504-1.3494 0.13994-0.1133-0.40527zm467.93 0.1407c0.3626-1.2999 4.1356 0.96829 0 0zm-3.2412-0.18237c-2.8414-2.048 7.459 0.81005 0 0zm-476.45-0.50994c3.6759-0.94771 4.0265 1.107 0 0zm4.8669-0.32088c-2.4828-2.5057 12.532 0.64865 0 0zm20.93-0.30972c3.849-1.0792-1.4896 1.0983 0 0zm-9.2201-0.85908c2.3778-0.98115 4.2355 0.9104 0 0zm41.866 0.0246c4.5023-0.10605-3.1927 0.8535 0 0zm-58.144-0.66376c-0.4124-2.3809 5.9953-0.76694 0.8923 0.43253-0.2502-0.16663-2.0652 0.41088-0.8923-0.43253zm26.425-0.0893c4.021-1.2655-0.9634 1.0794 0 0zm9.2604-0.772c7.3093-1.2149 3.0364 1.2076 0 0zm5.2341-0.0549c7.8156-1.7512 4.0264 1.2676 0 0zm437.68 0.0169c-9.234-2.2046 1.167 0.18022 3.8365-0.4931 7.2037 0.90034-3.0622 1.0093-3.8365 0.4931zm-444.5-1.7592c-10.171-1.8059 8.8438-0.34027 12.347-0.93451 3.5719 1.5745-11.258 0.66119-12.347 0.93451zm463.96-0.21725c-0.4631-1.5759 5.2671 0.92259 0 0zm-445.68 0.0436c3.5757-0.98356 2.3572 0.5225 0 0zm439.32-0.16759c-1.0588-0.83516 3.3567 0.89784 0 0zm-489.61-0.52917c4.288-0.96576-1.1522 0.97922 0 0zm483.86-0.18714c3.9335-0.0496-1.4808 0.36737 0 0zm-428.17-0.34202c3.849-1.0789-1.4895 1.0983 0 0zm425.71-0.79375c0.03-1.2898 1.4142 1.0175 0 0zm-427.96-0.26956c-6.5531-1.8601 15.279-3.573 6.6146-1.3919-0.8081 1.0524-4.9221 0.41515-6.6146 1.3919zm-8.8395-0.38174c-7.5704 0.40601-11.775-0.92139-1.9416-1.3191 5.7397-0.3105 12.615 2.2036 1.9416 1.3191zm-26.399-0.18222c-5.2779-1.7329 6.8992 0.15553 8.9123-1.3158 17.809 0.23263-6.734 2.336-8.9123 1.3158zm-13.048-0.52382c-10.278-1.996 12.874 0.52136 0.6094 0.0694l-0.6094-0.0662zm5.8019 3e-3c5.8192 0.10763-4.2586 0.67629 0 0zm10.735-1.0266c4.9432-1.1305 0.6457 0.79545 0 0zm10.319-0.26459c-0.8225-1.1095 1.8235 0.64172 0 0zm-20.042-1.5124c6.5953-0.0401-2.8001 0.35825 0 0zm8.8636-0.79095c5.4999-0.0442-2.3599 0.37435 0 0zm14.689-1.055c2.9115-0.0482-1.1722 0.39196 0 0zm502.31-0.50128c-12.108-1.4225 1.9884-1.5104-0.4147-1.6437-3.5444-2.8326 7.8654 1.6121 0.4147 1.6437zm-516.46-0.56084c3.9335-0.0496-1.4807 0.36738 0 0zm8.7617-0.6064c5.7291-3.102 5.5437-0.36736 11.134-1.573 7.5599-0.71312 6.8694 1.8402 1.1835 0.89088-4.9728 1.1158-9.4063 0.39513-12.947 1.2181l0.6288-0.5361zm-28.218-0.41328c4.0415-0.76598 2.6708 0.8261 0 0zm22.958-0.90985c3.6182-1.1718 0 1.0292 0 0zm471.29 0.0822c3.343-0.0905-0.8941 0.39814 0 0zm-468.38-1.1205c8.8452-0.65643 3.0678-0.28765 0 0zm483.39-0.0201c-0.042-1.2541 2.9767 0.87904 0 0zm10.848-0.0371c-0.3694-1.1859-0.9213-1.708 8.4584-2.2162-2.4121 0.78768-0.1672 1.5903 7.3304 0.0472 3.1322 0.81829-12.476 2.6054-15.789 2.3894zm-7.0114-0.50723c9.9414-0.82456-1.2527 0.96772 0 0zm-472.68-0.52999c6.023-0.61382 2.7939-0.31098 0 0zm-7.8663-0.43193c2.9115-0.0482-1.1721 0.39196 0 0zm483.19-0.60576c5.7554-1.8719 8.78 0.65356 0 0zm-469.77-0.26914c3.237-1.1458-0.3091 0.99723 0 0zm6.4212 0.0812c2.9116-0.0482-1.1721 0.39196 0 0zm454.75-0.0812c8.8125-0.98516-1.1232 1.2348 0 0zm24.342-0.26458c5.4422-2.7635 8.2076-1.6983 1.1907 0.24148-0.078-0.17666-2.5285 0.3617-1.1907-0.24148zm-477.57-0.52917c5.1736-1.0526-1.9094 1.0314 0 0zm413.48-0.18714c3.9335-0.0496-1.4808 0.36738 0 0zm-417.91-0.37346c-2.8594-1.5092 4.6534 0.59003 0 0zm18.341-0.20352c1.1153-1.4707 4.9595 0.78193 0 0zm430.94 0.0453c-2.6089-2.9564 3.5941 0.54059 0.8373 0.10491l-0.8373-0.10501zm-7.1663-0.27228c1.0411-1.1959 0.01-0.15501 0 0zm-492.32-0.52044c-3.5793-1.6594 6.6578 0.43131 0 0zm35.983 0c-2.8889-1.2223 6.9626-0.1218 0 0zm-21.161-0.33131c1.3917-1.0286 4.3847 0.52429 0.1692 0.27371zm39.153-0.44754c2.875-0.0775-0.015-0.27866 0 0zm424.46 0.22815c-2.3608-1.3882 3.4282-0.74375 0 0zm22.622-0.50134c3.343-0.0905-0.8941 0.39817 0 0zm15.923-0.0522c-3.8261-2.7935-12.688 1.7268-10.036-1.6722 3.9989 1.7803 21.042-1.234 16.436 0.7086 0.8633 1.8951-4.293-0.40597-6.4002 0.96361zm16.158-0.07c-4.1321-0.57477 1.6128-1.7965 0.7014-2.1005 5.212 1.269 6.755 2.7507-0.7014 2.1005zm-37.99-0.23812c-0.8344-2.0516 9.5905-1.6967 5.1813-0.75713-1.6527 0.23193-3.5832 1.114-5.1813 0.75713zm-449.24-0.24318c4.3169-0.94863 0.1813 0.66745 0 0zm441.65-0.0517c2.0895-1.8389 0.9896 1.2997 0 0zm-489.01-0.14918c-3.8314-2.7209 2.2733-1.3797 5.1586-0.88818-1.4492 1.1392-3.424 0.95096-5.1586 0.88818zm485.31-0.39142c-0.01-3.0809 10.758 1.0229 0 0zm-457.89-0.34441c2.4372-1.9375 2.7612-4.0622 6.7139-2.0581-0.1811 0.65546-2.6618 2.2658-6.7139 2.0581zm-18.818-0.0593c-1.4586-0.19573 10.997-2.6501-0.8753-1.0946-7.6793-1.8455 10.076-2.5202 7.4394-1.3933 2.5506 2.4144 6.1654 1.5157 0.048 2.1598-2.2006 0.46627-4.3701 0.69865-6.6124 0.3281zm0.5292-2.1868c-0.9723-1.2694-1.8645 0.93098 0 0zm50.932 2.2751c4.5506-3.3498 14.71-1.7105 3.7068-0.91633-1.4197-0.71435-2.6514 1.4678-3.7068 0.91633zm411.43-0.15843c2.3758-0.96423 7.445 0.59004 0 0zm7.4084-0.13229c-0.5262-1.5399 6.3623 0.58532 0 0zm12.436-0.19844c5.3084-0.78391 6.6629 1.0312 0 0zm-450.28-0.16566c3.7237-1.6979 6.4434 1.0195 0 0zm463.31-0.21516c3.343-0.0905-0.8941 0.39817 0 0zm15.809-0.18364c2.7981-2.443 3.9204 1.6615 0 0zm17.346-0.0393c-10.978-1.0174 4.9202-0.98438 0.5136 0.38849zm-30.707-0.13906c5.9632-0.82199-2.5027 0.8526 0 0zm-481.81-0.2494c2.5409-1.1525 1.42 1.2313 0 0zm-22.159-0.20656c-4.8117-2.3242 3.258-0.55708 0 0zm18.129 0.0233c2.9116-0.0482-1.1721 0.39195 0 0zm474.59-0.0347c9.5411-3.0965 11.064 1.1494 0 0zm-450.06-0.22346c-7.9106-2.6935 7.6237-0.83859 0 0zm-8.0066-0.40929c4.9467-0.31584-0.4266 0.98159 0 0zm468.26 0.0796c1.8101-2.0939-11.847-1.5493-6.8932-2.5905 4.1025-0.46092 14.525 3.0791 8.2021 2.5679 1.8447 0.3057-1.5722 0.48029-1.3089 0.0226zm-457.21-0.55177c0.3414-1.5654 2.4973 0.5289 0 0zm5.7037-0.22365c-0.01-2.4074-17.753-1.6444-6.7614-2.9243 3.0721-1.2467 13.458 1.4176 10.528 2.4188-3.5794-0.29801-1.5445 2.4179-3.767 0.50553zm-0.2797-2.1576c0.9006-1.2374-3.5762 0.81249 0 0zm470.96 2.3826c-9.6557-2.439 14.624 0.2287 0 0zm-7.8052-0.26596c-0.985-0.99516 4.4125 0.83604 0 0zm-456.68-0.28218c0.7094-2.4242 3.7355 0.67253 0 0zm-23.934-0.79113c0.772-0.62261 4.4105 0.89958 0 0zm479.29-0.24961c0.4668-0.95046 5.492 0.58925 0 0zm12.35-0.70564c8.6251-1.2361 4.51 0.4994 0 0zm-462.87-0.0103c5.5-0.0442-2.3599 0.37437 0 0zm427.1-0.0618c-5.8639-0.92395 6.7474 0.41946 0 0zm45.266 0.15134c3.3808-1.1942 2.407 0.75554 0 0zm-32.672-0.62662c-0.9512-1.6526 2.5066 0.30427 0 0zm-476.94-0.59904c1.0835-1.9563 14.632-3.1299 7.9375-1.5643 3.6593 2.1104 8.7565-2.8217 13.309-0.30848 8.219-0.18334-4.5184 2.8252-6.8267 1.2926-4.2897 1.0734-10.854-0.041-14.42 0.58016zm13.229-0.52916c0.3158-1.3704-3.8825 1.0701 0 0zm447.83 0.56221c1.5988-0.53757 4.1829 0.66301 0.1431 0.23156zm8.1816-0.0331c-1.9059-0.78857 6.4388 0.2112 0.7938 0.20198zm17.727-0.31578c-7.5303 0.65913-11.088-1.3809-3.8429-1.3118 2.4561-0.43809 11.749 2.5968 3.8429 1.3118zm-492.39-0.21338c6.0125-1.0686 2.5934 0.73084 0 0zm470.15 9e-3c-5.5525-2.5644 2.0757 0.86575 2.6635-0.0747-0.7506-0.38684-2.1034 1.0328-2.6635 0.0747zm11.25-0.39894c-9.4141-1.4255-1.5526-2.6761 0.3902 0.39021zm-494.31-0.25294c0-2.7946 5.9358 1.5706 0 0zm520.99 0.0591c6.0761-3.0218 5.1726-0.76021 9.185-0.98206-2.1964 1.4362-8.3659 0.80157-9.185 0.98206zm-2.7213-1.2825c-9.6778-0.74599 4.2084-0.93543 0 0zm-477.04-0.4917c0.1228-3.4246 4.5528 0.56254 0.5232 0.20442zm480.21-0.023c-0.7609-1.1298 3.393 0.81437 0 0zm7.8052-0.77412c-9.4954 1.2119-2.0074-3.537 0.7938 0.24494-0.2618-0.0904-0.5236-0.18087-0.7938-0.24494zm-508.21-1.0118c5.5214-1.3122 8.5245 1.7557 0 0zm490.09 0.14277c-9.5131-1.519 5.6433-0.43437 0 0zm17.945-1.4572c-5.3993-2.5658 4.4544 0.32662 0 0zm-537.45-0.32824c3.8457-1.7607 5.4103 0.26944 0 0zm56.506-0.51245c0.4286-1.5934 1.464 0.88858 0 0zm470.02-0.18206c-7.9583-0.35231 1.5723-3.7884 1.4991 0.41872-0.5186-0.0751-1.1076 0.0908-1.4991-0.41872zm6.7939-0.40674c-5.0595-0.49268 3.673-0.55289 0 0zm-527.63-0.20809c-3.353-1.6246 8.5445 0.80868 0 0zm529.76-0.86297c-2.3722-1.7328 3.7367 0.55196 0 0zm-500.92-0.21995c2.2746-1.3306 0.2147 1.1917 0 0zm-19.321-0.51855c2.4827-1.1446 1.1261 0.73044 0 0zm512.58-0.32811c2.1906-0.64138-0.6184 1.4062 0 0zm5.795-0.31377c1.2728-2.3605 8.8152 0.83368 0.5827 0.23443zm-510.43-0.42707c4.9857-1.5546 1.274 2.3376 0 0zm-26.255-0.18335c2.9115-0.0482-1.1722 0.39193 0 0zm535.71-0.99166c1.239-2.5885 1.3015 1.8831 0 0zm2.1377-0.91033c5.804 0.91278 2.1889 0.41603 0 0zm-3.8207-1.2732c0.074-2.0865-13.033-2.365-7.612-3.1531 3.9594-1.5836 4.8648-1.1336 6.5421 0.65 2.2922 0.74452 8.6433-0.74028 7.3831 1.0378 4.511 0.87046-7.5369 0.0638-6.3132 1.4653zm-2.5504-3.5206c-2.0089-0.20899 0.054-0.0489 0 0zm-531.81 2.7287c2.1015-0.23263 18.717-1.1264 10.451-0.14081-3.3138-0.0733-7.5918 0.666-10.451 0.14081zm3.3073-3.2422c1.52-0.85674 8.4524 0.032 0 0zm12.796-0.15838c3.5143-1.3292-2.629 1.6447 0 0zm-2.2538-0.68656c2.9119-0.34861-1.5222 1.0952 0 0zm523.45 0.0429c-6.7181-0.32822 10.531-1.9991 2.2953 0.21947-0.7675-0.0461-1.5304-0.14382-2.2953-0.21947zm-11.042-0.67601c8.576-1.551 9.2819 0.64048 1.5526 0.30312 1.2686-0.95869-2.9901 0.73667-1.5526-0.30312zm-2.3097-0.2821c9.4261-2.5733-5.4407 1.9626 0 0zm-509-0.3723c3.314-0.88459-0.8561 1.1171 0 0zm514.57-1.553c6.2018-1.1743 1.286-0.41923 0 0zm-499.81-1.0116c2.9115-0.0482-1.1721 0.39196 0 0zm496.87-0.24482c2.345-1.1668-0.8799 1.5832 0 0zm7.6231-0.1405c4.4369-1.8059 2.6516 1.3062 0 0zm5.3698-1.6045c-5.7927-2.1639 3.5947-2.2859 0.6483 0.29402 0.4967-0.1851-3.7569 0.20971-0.6483-0.29402zm-8.2806-0.47262c-5.884-1.5695 9.1545-0.28327 0 0zm-3.3073-0.79375c0.3684-1.0746 2.6264 1.2586 0 0zm-6.162-1.483c3.7236-1.3149 4.8457 1.0608 0 0zm13.482 0.19285c-0.2745-1.9042 3.4339 0.65733 0 0zm-3.2189-0.30202c-1.6111-0.93357 3.4171 0.78018 0 0z" style="fill-rule:evenodd;mix-blend-mode:normal;paint-order:stroke fill markers;stroke-linecap:round;stroke-linejoin:round;stroke-width:12.7;stroke:#fdfefe"/>
 </g>
</svg>
